<?xml version="1.0" encoding="UTF-8"?>
<svg version="1.1" xmlns="http://www.w3.org/2000/svg" width="512" height="512">
<path d="M0 0 C0.80221481 -0.0065712 1.60442963 -0.0131424 2.43095398 -0.01991272 C5.08344628 -0.0396056 7.73588194 -0.0513021 10.38842773 -0.0612793 C11.29776503 -0.06535482 12.20710232 -0.06943035 13.14399529 -0.07362938 C17.9612289 -0.09447743 22.77843418 -0.10878215 27.59570312 -0.11816406 C32.54954114 -0.12919936 37.50292639 -0.16356952 42.45660496 -0.20333576 C46.28385703 -0.22960066 50.11100307 -0.23786484 53.93833733 -0.24144554 C55.76302063 -0.24628947 57.5876999 -0.25784017 59.41229439 -0.27648354 C74.3872311 -0.41993046 85.59755051 1.24564226 96.84545898 11.91918945 C101.56349909 16.88446311 108.00952148 25.07497683 108.00952148 32.17700195 C108.57613495 32.17034012 109.14274841 32.16367828 109.72653198 32.15681458 C115.66455365 32.09005056 121.60246735 32.04503227 127.54077148 32.01220703 C129.75207862 31.99719158 131.96335634 31.97677305 134.17456055 31.95068359 C137.36701757 31.91398041 140.55907824 31.89720265 143.75170898 31.8840332 C144.72816376 31.86854935 145.70461853 31.85306549 146.71066284 31.83711243 C160.69186577 31.83374296 171.62143126 37.25871578 181.71655273 46.7277832 C192.77309551 58.53775308 194.60782557 72.29823618 194.52709961 87.75878906 C194.53252905 89.51432371 194.5396563 91.2698538 194.54833984 93.02537537 C194.5664798 97.76516296 194.55954408 102.50459987 194.5468235 107.24439311 C194.53664565 112.22222841 194.54610255 117.20003513 194.55236816 122.1778717 C194.55963137 130.53595326 194.55009248 138.89389312 194.53100586 147.25195312 C194.50924684 156.89108328 194.51628683 166.52987482 194.53831148 176.16899675 C194.5565119 184.4691544 194.55900096 192.7692106 194.5485568 201.06938177 C194.54234642 206.01604191 194.54141811 210.96254333 194.55470276 215.90919304 C194.56632817 220.56251416 194.55811435 225.21540237 194.53512573 229.86867714 C194.52987386 231.56811177 194.53129142 233.26758335 194.54017639 234.96700287 C194.6184685 251.47428509 191.119635 263.61536428 179.69702148 275.92700195 C168.04985992 286.95020843 153.92083 289.33867406 138.47247314 289.31071472 C137.5430546 289.31298028 136.61363605 289.31524583 135.6560533 289.31758004 C132.55804289 289.32388357 129.46007664 289.32309303 126.36206055 289.32226562 C124.13407332 289.3252594 121.90608661 289.32866243 119.67810059 289.33244324 C113.63663618 289.34126541 107.59518594 289.34362061 101.55371571 289.34425902 C97.77589839 289.34497056 93.99808467 289.34710686 90.22026825 289.34975624 C77.71136305 289.358527 65.20246588 289.36317669 52.69355825 289.36242577 C52.02019916 289.36238581 51.34684008 289.36234585 50.65307617 289.36230469 C49.97888774 289.36226381 49.30469931 289.36222293 48.61008093 289.36218081 C37.69025177 289.36177458 26.77045712 289.37134005 15.85063794 289.38544305 C4.61800174 289.39983471 -6.61461817 289.4065289 -17.84726548 289.40584928 C-24.14538256 289.40559477 -30.44346056 289.40842013 -36.74156952 289.41902733 C-42.66773893 289.4287359 -48.59383212 289.42876857 -54.52000427 289.4215107 C-56.68869895 289.42046827 -58.85739845 289.42280732 -61.0260849 289.42887115 C-81.13783806 289.48144032 -98.02651523 288.76655474 -113.15454102 274.07543945 C-121.58648474 265.13821071 -126.22613492 254.96081317 -126.25790405 242.57574463 C-126.26243517 241.84248545 -126.26696628 241.10922628 -126.2716347 240.35374713 C-126.28422526 237.91358185 -126.28266181 235.47364129 -126.28100586 233.03344727 C-126.2869945 231.27688309 -126.29380082 229.52032154 -126.30136108 227.76376343 C-126.31899526 223.00324646 -126.32371541 218.24280145 -126.32499266 213.48225498 C-126.32641641 210.50430368 -126.33069028 207.52637055 -126.33598709 204.54842377 C-126.35447965 194.14856306 -126.36265877 183.74875355 -126.36108398 173.34887695 C-126.35988318 163.67234228 -126.38097563 153.99603086 -126.41257131 144.31955266 C-126.43877118 135.99742948 -126.44944971 127.67537905 -126.44817317 119.35321498 C-126.44766457 114.38917736 -126.45329065 109.4253382 -126.47452927 104.46134186 C-126.49397395 99.78923464 -126.49399371 95.11751391 -126.479496 90.44539261 C-126.47741444 88.73746548 -126.48206965 87.02951377 -126.49421692 85.32162857 C-126.5956703 70.0604866 -123.45517881 56.92324509 -112.74047852 45.42700195 C-104.51509388 37.71115442 -93.49474386 32.0327856 -82.10839844 32.06347656 C-81.16780075 32.06355209 -80.22720306 32.06362762 -79.25810242 32.06370544 C-77.75471062 32.07144737 -77.75471062 32.07144737 -76.22094727 32.0793457 C-75.18480789 32.08076065 -74.14866852 32.0821756 -73.08113098 32.08363342 C-69.78005048 32.08921953 -66.47903843 32.10176953 -63.17797852 32.11450195 C-60.93644304 32.11951875 -58.6949065 32.12408134 -56.45336914 32.12817383 C-50.96571568 32.13918442 -45.47810199 32.15590877 -39.99047852 32.17700195 C-39.68577637 31.24291504 -39.38107422 30.30882813 -39.06713867 29.34643555 C-35.13587611 17.77372566 -28.62531252 9.32757975 -17.74047852 3.73950195 C-11.59007362 0.81566958 -6.79371371 0.02423409 0 0 Z M-5.35964966 35.56919861 C-6.86435164 37.97531673 -8.19526508 40.32826973 -9.39282227 42.8996582 C-9.80854492 43.7678418 -10.22426758 44.63602539 -10.65258789 45.53051758 C-11.50364784 47.3382054 -12.34999885 49.14811761 -13.19165039 50.96020508 C-16.08986623 56.98508963 -18.36524973 60.82892539 -24.88647461 63.25390625 C-30.25368297 64.71857769 -35.75336539 64.4553281 -41.27563477 64.45043945 C-43.68644678 64.47071914 -46.09725404 64.49156974 -48.50805664 64.51293945 C-52.28910351 64.53557309 -56.0699626 64.55202815 -59.85107422 64.55786133 C-63.51376799 64.56737791 -67.17562781 64.6011335 -70.83813477 64.63793945 C-71.96639175 64.63289398 -73.09464874 64.62784851 -74.25709534 64.62265015 C-80.46890443 64.70051689 -84.30156148 64.95030491 -88.99047852 69.17700195 C-93.55060198 74.96959122 -94.11248379 79.5800923 -94.13092041 86.79193115 C-94.13389153 87.44322156 -94.13686265 88.09451197 -94.13992381 88.76553845 C-94.14857063 90.94014102 -94.15011564 93.11468827 -94.15161133 95.28930664 C-94.15624236 96.85177731 -94.1612674 98.41424685 -94.16665649 99.97671509 C-94.17975522 104.21655709 -94.18622053 108.45638327 -94.19066715 112.69624233 C-94.19360201 115.34751789 -94.1977076 117.99878917 -94.20217133 120.65006256 C-94.21583971 128.9522343 -94.22550954 137.25439619 -94.22937322 145.5565784 C-94.23385223 155.12732623 -94.25139563 164.69793113 -94.28037381 174.26863551 C-94.30201789 181.67518808 -94.31207895 189.08170051 -94.31341434 196.48828435 C-94.31446043 200.90788223 -94.32032642 205.32734562 -94.33823395 209.7469101 C-94.35476181 213.90676755 -94.35684737 218.0663901 -94.34809494 222.22626877 C-94.34732708 223.74797827 -94.35163403 225.26970065 -94.36155319 226.79137802 C-94.63637689 239.79027297 -94.63637689 239.79027297 -89.30688477 251.33325195 C-88.7280957 251.77668945 -88.14930664 252.22012695 -87.55297852 252.67700195 C-86.97676758 253.14106445 -86.40055664 253.60512695 -85.80688477 254.08325195 C-82.66924034 255.97258623 -79.58516316 256.30191747 -75.97269726 256.30563641 C-74.78113011 256.31047308 -74.78113011 256.31047308 -73.5654909 256.31540745 C-72.69867184 256.31385885 -71.83185278 256.31231025 -70.93876648 256.31071472 C-69.55059879 256.31411306 -69.55059879 256.31411306 -68.13438731 256.31758004 C-65.02610237 256.32392199 -61.91786102 256.32309055 -58.80957031 256.32226562 C-56.58391259 256.32525701 -54.35825539 256.32865949 -52.13259888 256.33244324 C-46.08090307 256.34128989 -40.0292214 256.34362164 -33.97751975 256.34425902 C-28.92779033 256.3452078 -23.87806421 256.34888576 -18.82833606 256.35243112 C-7.59577026 256.36011278 3.63678886 256.36309951 14.86935649 256.36242577 C15.54330381 256.36238581 16.21725113 256.36234585 16.91162109 256.36230469 C17.92377815 256.36224337 17.92377815 256.36224337 18.95638283 256.36218081 C29.88954388 256.36177444 40.82267048 256.37134153 51.75582156 256.38544305 C62.98491695 256.39981185 74.21399606 256.40652987 85.44310254 256.40584928 C91.74614992 256.40559417 98.04915832 256.40845253 104.35219765 256.41902733 C110.28076083 256.42870196 116.20924771 256.4287918 122.13781357 256.4215107 C124.31344273 256.42046405 126.48907662 256.4228325 128.66469765 256.42887115 C131.63550786 256.43658263 134.60605404 256.43195172 137.57685852 256.42424011 C138.86704886 256.43195546 138.86704886 256.43195546 140.18330365 256.43982667 C146.26885087 256.40493993 152.78229258 256.13009476 157.32202148 251.55200195 C157.7925293 251.10598633 158.26303711 250.6599707 158.74780273 250.20043945 C163.39868866 242.74174315 162.29973626 233.16780554 162.28417969 224.72412109 C162.28853212 223.16120664 162.29371703 221.59829432 162.29966736 220.03538513 C162.3130107 215.80809243 162.3136413 211.5808894 162.31110406 207.35357976 C162.31003129 203.81739731 162.31492546 200.28123278 162.31970948 196.74505419 C162.33078828 188.39952108 162.33125108 180.05403299 162.32519531 171.70849609 C162.31915462 163.11404106 162.33147268 154.51974971 162.35276538 145.92532259 C162.37040661 138.53144067 162.37637881 131.13761073 162.37312764 123.74370855 C162.37131885 119.33422639 162.37391064 114.92486103 162.38784218 110.51539803 C162.40045723 106.36779763 162.39844185 102.22045168 162.38543129 98.072855 C162.38307404 96.55598615 162.3857695 95.03909918 162.39405441 93.52225113 C162.85910491 80.72385189 162.85910491 80.72385189 157.5576067 69.56990147 C153.60411524 66.15076147 151.07373692 65.0550345 145.96826172 65.01928711 C144.9163414 65.00902496 143.86442108 64.99876282 142.78062439 64.9881897 C141.63799637 64.98088837 140.49536835 64.97358704 139.31811523 64.96606445 C136.90469717 64.93798064 134.49128581 64.90931608 132.07788086 64.88012695 C128.26855769 64.83896892 124.45935756 64.80208761 120.64990234 64.77563477 C116.97654202 64.74790588 113.30375309 64.70201534 109.63061523 64.65356445 C108.50215683 64.65031158 107.37369843 64.64705872 106.21104431 64.64370728 C98.92515617 64.53132081 91.37890276 64.25925335 85.76342773 59.12231445 C83.23839068 54.88205178 81.07620675 50.50190339 78.94702148 46.05200195 C78.08685498 44.25498249 77.22117887 42.46058733 76.34936523 40.66918945 C75.78270142 39.48365479 75.78270142 39.48365479 75.20458984 38.27416992 C73.9124514 36.00665832 73.10566067 34.74324795 71.00952148 33.17700195 C67.74490376 32.70453492 67.74490376 32.70453492 63.93945312 32.75708008 C62.86578743 32.74437576 62.86578743 32.74437576 61.77043152 32.73141479 C59.40333306 32.70800766 57.03688319 32.70702347 54.66967773 32.70825195 C53.02444701 32.7011525 51.37921877 32.69345382 49.73399353 32.68518066 C46.28483194 32.6717273 42.83589926 32.67017082 39.38671875 32.67602539 C34.96664766 32.68192194 30.54767482 32.65133699 26.1278162 32.61090851 C22.72971174 32.58505786 19.33187263 32.58215165 15.9336834 32.58580017 C14.30417559 32.58410638 12.67465587 32.57443887 11.04524422 32.55665588 C8.76574365 32.53451645 6.48847733 32.54413913 4.20898438 32.56176758 C2.91231339 32.55971313 1.6156424 32.55765869 0.27967834 32.55554199 C-3.15136375 32.88758407 -3.15136375 32.88758407 -5.35964966 35.56919861 Z " fill="#000000" transform="translate(221.990478515625,95.822998046875)"/>
<path d="M0 0 C13.16303609 10.09592089 22.64991215 24.4967452 25.19140625 41.03515625 C26.19731863 53.24820813 26.31073968 65.71472548 21.19140625 77.03515625 C20.71703125 78.10636719 20.24265625 79.17757812 19.75390625 80.28125 C11.56859229 96.98637392 -1.63418871 107.28712345 -18.80859375 114.03515625 C-35.27132594 119.52273365 -53.26440731 117.20806016 -68.80859375 110.03515625 C-85.35751074 100.69413079 -96.3210775 86.61173874 -101.92578125 68.40625 C-105.85570076 51.84291549 -103.167653 33.80283911 -94.8125 19.203125 C-86.45931113 5.9975964 -75.51627662 -3.48171636 -60.80859375 -8.96484375 C-60.03 -9.28324219 -59.25140625 -9.60164062 -58.44921875 -9.9296875 C-38.78887397 -16.72315058 -16.54971996 -11.57789867 0 0 Z M-63.80859375 32.03515625 C-69.86119271 40.9484363 -70.88529328 49.41450844 -69.80859375 60.03515625 C-66.97435415 69.15492353 -61.80654479 75.49929361 -53.6484375 80.30859375 C-46.18018936 84.02296055 -38.19591466 85.0356618 -30.1015625 82.88671875 C-20.79545222 79.43061647 -14.12458205 73.71674224 -9.43359375 65.03515625 C-6.23161627 57.16474943 -6.54013706 47.53904124 -9.37109375 39.59765625 C-13.35693563 31.2078772 -19.30601032 25.6970822 -27.80859375 22.03515625 C-40.94986285 17.71928682 -54.85145995 21.84392846 -63.80859375 32.03515625 Z " fill="#000000" transform="translate(294.80859375,203.96484375)"/>
<path d="M0 0 C4.97347362 2.30911275 7.33186346 5.27238635 10 10 C10.50793457 13.56640625 10.50793457 13.56640625 10.51757812 17.5625 C10.5245874 18.29500977 10.53159668 19.02751953 10.53881836 19.78222656 C10.55633397 22.18854382 10.54479954 24.59367209 10.53125 27 C10.53394679 28.68099186 10.53783077 30.36198221 10.54284668 32.04296875 C10.54873298 35.56004743 10.54020709 39.0767188 10.52148438 42.59375 C10.49869501 47.09302189 10.5118228 51.59133927 10.53577423 56.09057617 C10.55025591 59.55996847 10.54561544 63.02913594 10.53526306 66.49853516 C10.53260231 68.15706496 10.53584257 69.81561544 10.54518127 71.47412109 C10.55538646 73.79579421 10.53979279 76.11594011 10.51757812 78.4375 C10.51439575 79.75621094 10.51121338 81.07492187 10.50793457 82.43359375 C9.72342352 87.94195107 7.34137538 90.96602315 3 94.3125 C-1.64578151 96.9257521 -5.25458537 97.13024846 -10.56933594 97.16113281 C-11.54580078 97.16858017 -11.54580078 97.16858017 -12.54199219 97.17617798 C-14.68946402 97.19074729 -16.83686192 97.19759363 -18.984375 97.203125 C-20.48406983 97.20888176 -21.98376465 97.21463942 -23.48345947 97.22039795 C-26.62732281 97.23089377 -29.77116068 97.23674538 -32.91503906 97.24023438 C-36.92747544 97.2457092 -40.93957079 97.26972128 -44.95190048 97.29820633 C-48.05072994 97.31690816 -51.14947858 97.32204235 -54.24835968 97.32357025 C-55.72662465 97.32658147 -57.20488872 97.33455782 -58.68309784 97.34775543 C-76.29304465 97.49372795 -76.29304465 97.49372795 -81.54071045 92.5479126 C-86.07281632 87.32267277 -86.34983214 83.71774115 -86.27734375 76.984375 C-85.78922623 71.73195554 -83.41260017 69.26875383 -79.62646484 65.86816406 C-74.81182588 62.75969509 -69.11962089 63.51033181 -63.6015625 63.609375 C-62.41146576 63.61503479 -61.22136902 63.62069458 -59.99520874 63.62652588 C-56.20472514 63.64886549 -52.41519655 63.69906037 -48.625 63.75 C-46.05079493 63.77006799 -43.476575 63.78831823 -40.90234375 63.8046875 C-34.60123822 63.84872255 -28.30068735 63.91561195 -22 64 C-22.00888245 63.33680756 -22.01776489 62.67361511 -22.0269165 61.99032593 C-22.11549956 55.07973866 -22.17578015 48.16931304 -22.21972656 41.25830078 C-22.23982563 38.68010912 -22.26710941 36.10196296 -22.30175781 33.52392578 C-22.35034847 29.81531539 -22.37298658 26.10730844 -22.390625 22.3984375 C-22.41127014 21.24822113 -22.43191528 20.09800476 -22.45318604 18.91293335 C-22.45494774 12.61147807 -22.27883437 8.76395187 -18 4 C-12.72867143 -1.00776214 -6.89190982 -0.92775709 0 0 Z " fill="#000000" transform="translate(470,384)"/>
<path d="M0 0 C4.64033987 2.15444351 8.03598049 5.2220809 10 10 C10.54851096 14.13732054 10.46541986 18.23134214 10.390625 22.3984375 C10.38496521 23.58853424 10.37930542 24.77863098 10.37347412 26.00479126 C10.35113451 29.79527486 10.30093963 33.58480345 10.25 37.375 C10.22993201 39.94920507 10.21168177 42.523425 10.1953125 45.09765625 C10.15127745 51.39876178 10.08438805 57.69931265 10 64 C10.66319244 63.99111755 11.32638489 63.98223511 12.00967407 63.9730835 C18.92026134 63.88450044 25.83068696 63.82421985 32.74169922 63.78027344 C35.31989088 63.76017437 37.89803704 63.73289059 40.47607422 63.69824219 C44.18468461 63.64965153 47.89269156 63.62701342 51.6015625 63.609375 C52.75177887 63.58872986 53.90199524 63.56808472 55.08706665 63.54681396 C61.38852193 63.54505226 65.23604813 63.72116563 70 68 C73.62833663 71.81930172 74.31000458 74.88279006 74.5 80 C74.31000458 85.11720994 73.62833663 88.18069828 70 92 C64.32886416 96.37150055 60.4661425 97.1202492 53.43066406 97.16113281 C52.45419922 97.16858017 52.45419922 97.16858017 51.45800781 97.17617798 C49.31053598 97.19074729 47.16313808 97.19759363 45.015625 97.203125 C43.51593017 97.20888176 42.01623535 97.21463942 40.51654053 97.22039795 C37.37267719 97.23089377 34.22883932 97.23674538 31.08496094 97.24023438 C27.07252456 97.2457092 23.06042921 97.26972128 19.04809952 97.29820633 C15.94927006 97.31690816 12.85052142 97.32204235 9.75164032 97.32357025 C8.27337535 97.32658147 6.79511128 97.33455782 5.31690216 97.34775543 C-12.29304465 97.49372795 -12.29304465 97.49372795 -17.54071045 92.5479126 C-21.56886629 87.90369622 -22.15403598 84.81940291 -22.17700195 78.89160156 C-22.18357315 78.1596759 -22.19014435 77.42775024 -22.19691467 76.67364502 C-22.21666064 74.24597067 -22.22831414 71.81835827 -22.23828125 69.390625 C-22.24235678 68.56147331 -22.2464323 67.73232162 -22.25063133 66.87804413 C-22.2714993 62.48803455 -22.28579689 58.09805628 -22.29516602 53.70800781 C-22.30622187 49.17734066 -22.34060984 44.64716581 -22.38033772 40.11667252 C-22.40650953 36.63017883 -22.41485842 33.14380221 -22.41844749 29.65721893 C-22.42331334 27.98749218 -22.43492736 26.31777066 -22.45348549 24.64813995 C-22.4778861 22.30702493 -22.47691065 19.96718035 -22.4699707 17.62597656 C-22.48278076 16.94003418 -22.49559082 16.2540918 -22.50878906 15.54736328 C-22.45541965 10.5912454 -21.0554914 7.83835325 -18 4 C-12.72867143 -1.00776214 -6.89190982 -0.92775709 0 0 Z " fill="#000000" transform="translate(54,384)"/>
<path d="M0 0 C0.73250977 -0.00700928 1.46501953 -0.01401855 2.21972656 -0.02124023 C4.62604382 -0.03875584 7.03117209 -0.02722142 9.4375 -0.01367188 C11.11849186 -0.01636866 12.79948221 -0.02025264 14.48046875 -0.02526855 C17.99754743 -0.03115485 21.5142188 -0.02262896 25.03125 -0.00390625 C29.53052189 0.01888312 34.02883927 0.00575532 38.52807617 -0.01819611 C41.99746847 -0.03267779 45.46663594 -0.02803731 48.93603516 -0.01768494 C50.59456496 -0.01502418 52.25311544 -0.01826444 53.91162109 -0.02760315 C56.23329421 -0.03780834 58.55344011 -0.02221466 60.875 0 C62.19371094 0.00318237 63.51242187 0.00636475 64.87109375 0.00964355 C70.3879267 0.79536172 73.2388314 3.0964897 76.78015137 7.29492188 C78.76746485 11.15918319 78.94461752 13.74541501 78.95507812 18.08007812 C78.9620874 18.81258789 78.96909668 19.54509766 78.97631836 20.29980469 C78.99383397 22.70612195 78.98229954 25.11125021 78.96875 27.51757812 C78.97144679 29.19856999 78.97533077 30.87956033 78.98034668 32.56054688 C78.98623298 36.07762556 78.97770709 39.59429692 78.95898438 43.11132812 C78.93619501 47.61060002 78.9493228 52.10891739 78.97327423 56.6081543 C78.98775591 60.07754659 78.98311544 63.54671407 78.97276306 67.01611328 C78.97010231 68.67464309 78.97334257 70.33319357 78.98268127 71.99169922 C78.99288646 74.31337233 78.97729279 76.63351823 78.95507812 78.95507812 C78.95189575 80.27378906 78.94871338 81.5925 78.94543457 82.95117188 C78.17807062 88.33913276 75.78811725 91.3818318 71.6875 94.83007812 C66.37717849 97.58736045 61.90381134 98.24385459 56.25 96.45507812 C51.51423074 94.44144395 48.73667633 91.11593079 46.4375 86.51757812 C46.34698931 84.82214221 46.31995128 83.12313835 46.32397461 81.42529297 C46.32405014 80.36434418 46.32412567 79.30339539 46.32420349 78.21029663 C46.32936478 77.0613089 46.33452606 75.91232117 46.33984375 74.72851562 C46.3412587 73.55495514 46.34267365 72.38139465 46.34413147 71.17227173 C46.34974311 67.41234827 46.36229762 63.65248368 46.375 59.89257812 C46.3800135 57.34830815 46.38457667 54.80403724 46.38867188 52.25976562 C46.39971632 46.0123496 46.41646582 39.76496807 46.4375 33.51757812 C45.82886108 33.52423996 45.22022217 33.53090179 44.59313965 33.5377655 C38.23369655 33.60435866 31.87435322 33.64947802 25.51464844 33.68237305 C23.14416477 33.69741911 20.77370875 33.71786086 18.40332031 33.74389648 C14.9875606 33.78046318 11.57217038 33.79734681 8.15625 33.81054688 C7.10385132 33.82603073 6.05145264 33.84151459 4.96716309 33.85746765 C-1.47722846 33.85892727 -8.12104798 33.73045297 -13.11804199 29.06535339 C-17.62143167 23.81794574 -17.91240637 20.2422145 -17.83984375 13.50195312 C-17.46583603 9.47741931 -16.33641295 7.43748649 -13.5625 4.51757812 C-8.93118623 0.84147282 -5.88011243 0.01419015 0 0 Z " fill="#000000" transform="translate(401.5625,31.482421875)"/>
<path d="M0 0 C0.73250977 -0.00700928 1.46501953 -0.01401855 2.21972656 -0.02124023 C4.62604382 -0.03875584 7.03117209 -0.02722142 9.4375 -0.01367188 C11.11849186 -0.01636866 12.79948221 -0.02025264 14.48046875 -0.02526855 C17.99754743 -0.03115485 21.5142188 -0.02262896 25.03125 -0.00390625 C29.53052189 0.01888312 34.02883927 0.00575532 38.52807617 -0.01819611 C41.99746847 -0.03267779 45.46663594 -0.02803731 48.93603516 -0.01768494 C50.59456496 -0.01502418 52.25311544 -0.01826444 53.91162109 -0.02760315 C56.23329421 -0.03780834 58.55344011 -0.02221466 60.875 0 C62.19371094 0.00318237 63.51242188 0.00636475 64.87109375 0.00964355 C70.16529367 0.76365389 73.1949097 3.20958834 76.8125 7.01757812 C79.21053575 12.18257821 79.19131535 16.91780692 78.4375 22.51757812 C76.14642959 27.45219132 73.14359835 29.8703978 68.4375 32.51757812 C65.37578086 33.49610556 62.5980878 33.63919577 59.39355469 33.63110352 C58.39281921 33.63102798 57.39208374 33.63095245 56.36102295 33.63087463 C55.28797913 33.62571335 54.2149353 33.62055206 53.109375 33.61523438 C52.00523254 33.61381943 50.90109009 33.61240448 49.76348877 33.61094666 C46.23813158 33.6053507 42.71283798 33.59279891 39.1875 33.58007812 C36.79687592 33.5750626 34.40625084 33.57049979 32.015625 33.56640625 C26.15622832 33.5553826 20.2968687 33.53864846 14.4375 33.51757812 C14.44638245 34.16824249 14.45526489 34.81890686 14.4644165 35.48928833 C14.55300834 42.27011315 14.61328373 49.05077317 14.65722656 55.83203125 C14.67732405 58.36172159 14.70460668 60.89136559 14.73925781 63.42089844 C14.78785556 67.06001229 14.81048812 70.69851113 14.828125 74.33789062 C14.84877014 75.46623322 14.86941528 76.59457581 14.89068604 77.7571106 C14.89246561 84.00454915 14.68755983 87.80076547 10.4375 92.51757812 C6.15541933 96.11841869 2.04551172 97.77009648 -3.5625 97.51757812 C-9.78772179 96.32086266 -12.97693473 93.6242923 -16.5625 88.51757812 C-18.02852736 85.5855234 -17.7270454 82.62436997 -17.73950195 79.40917969 C-17.74607315 78.67725403 -17.75264435 77.94532837 -17.75941467 77.19122314 C-17.77916064 74.7635488 -17.79081414 72.3359364 -17.80078125 69.90820312 C-17.80485678 69.07905144 -17.8089323 68.24989975 -17.81313133 67.39562225 C-17.8339993 63.00561267 -17.84829689 58.61563441 -17.85766602 54.22558594 C-17.86872187 49.69491878 -17.90310984 45.16474394 -17.94283772 40.63425064 C-17.96900953 37.14775695 -17.97735842 33.66138034 -17.98094749 30.17479706 C-17.98581334 28.50507031 -17.99742736 26.83534878 -18.01598549 25.16571808 C-18.0403861 22.82460305 -18.03941065 20.48475848 -18.0324707 18.14355469 C-18.04528076 17.4576123 -18.05809082 16.77166992 -18.07128906 16.06494141 C-18.01767374 11.08598712 -16.75737661 8.29507396 -13.5625 4.51757812 C-9.03823413 0.70142191 -5.8581698 0.0141372 0 0 Z " fill="#000000" transform="translate(49.5625,31.482421875)"/>
</svg>
