<?xml version="1.0" encoding="UTF-8"?>
<svg version="1.1" xmlns="http://www.w3.org/2000/svg" width="512" height="512">
<path d="M0 0 C0.97167352 -0.00754134 1.94334705 -0.01508268 2.94446522 -0.02285254 C4.01448007 -0.02607878 5.08449493 -0.02930501 6.18693447 -0.03262901 C7.88916256 -0.04343579 7.88916256 -0.04343579 9.62577909 -0.05446088 C13.44876138 -0.0772785 17.27173715 -0.09278331 21.09475613 -0.10816002 C23.13168851 -0.1185495 25.16861577 -0.12969661 27.20554364 -0.14093252 C52.8570899 -0.28193782 78.50920327 -0.3473506 104.16106415 -0.4002533 C107.50077814 -0.40726212 110.84049186 -0.41438911 114.18020535 -0.42163658 C115.01026726 -0.42343187 115.84032917 -0.42522717 116.69554447 -0.42707686 C130.13593854 -0.45713056 143.5759412 -0.521887 157.01613063 -0.60032304 C170.81823725 -0.68020411 184.62014134 -0.72594316 198.4224748 -0.73927915 C206.17071677 -0.74768074 213.91826512 -0.77137631 221.66627598 -0.83394814 C228.26652509 -0.88722209 234.86598298 -0.90988106 241.4664408 -0.89283796 C244.83270585 -0.88510301 248.19590017 -0.8967091 251.5621233 -0.93811989 C274.30280093 -1.20332411 274.30280093 -1.20332411 280.3791647 4.1300602 C281.73354875 5.76500671 283.04294676 7.43840953 284.30154324 9.14818764 C285.82672724 10.67683303 287.37542796 12.18233202 288.94534206 13.66500282 C290.55226602 15.26609164 292.15656395 16.8698193 293.75857449 18.47582436 C295.08730839 19.80192978 295.08730839 19.80192978 296.4428854 21.15482521 C298.83885562 23.54718456 301.23260141 25.94172431 303.62516689 28.33748579 C306.14110875 30.85598436 308.65951774 33.37201408 311.1775198 35.88845253 C315.39529954 40.10442251 319.61098732 44.32247564 323.82546902 48.54174232 C328.69522786 53.41696628 333.56861192 58.28854417 338.44384575 63.15829265 C342.64376262 67.35367377 346.84173068 71.55099743 351.03807068 75.74995625 C353.53864984 78.25209246 356.0398953 80.75355257 358.54290676 83.25325584 C361.32469234 86.03161981 364.10238532 88.81405287 366.87966824 91.59691811 C367.70768444 92.42291008 368.53570065 93.24890205 369.38880825 94.09992409 C370.142794 94.85672966 370.89677975 95.61353523 371.67361355 96.39327431 C372.32984707 97.04988485 372.98608059 97.7064954 373.66219997 98.38300323 C376.65777337 101.60852626 377.55078386 103.5743774 377.519454 107.88343239 C377.51761105 108.85756081 377.51576809 109.83168922 377.51386929 110.83533669 C377.49590046 112.43664688 377.49590046 112.43664688 377.47756863 114.07030678 C377.47315762 115.19584969 377.4687466 116.32139259 377.46420193 117.48104286 C377.45434229 119.92992975 377.44047342 122.37880297 377.42311192 124.82764816 C377.38662486 130.71090503 377.39311198 136.59408044 377.39355075 142.47742927 C377.39261637 151.50878919 377.37400369 160.53968206 377.30520535 169.57079506 C377.25400368 176.3178956 377.25028204 183.06361827 377.27334309 189.81093597 C377.273911 192.37889256 377.25827279 194.9469072 377.22590733 197.51465988 C376.31151297 213.1271697 376.31151297 213.1271697 382.70535183 226.58495522 C384.20801629 227.80968177 385.73677066 229.00387893 387.30154324 230.14818764 C398.46677585 243.77317475 405.55519762 261.38777499 410.30154324 278.14818764 C410.81394558 279.91549232 410.81394558 279.91549232 411.33669949 281.71850014 C418.20665546 310.7959882 413.72266391 345.37163159 398.95584011 371.31517982 C398.1011439 373.70960488 398.46563161 374.76225645 399.30154324 377.14818764 C400.65666862 378.92966252 400.65666862 378.92966252 402.4252615 380.59902382 C403.09254269 381.2632032 403.75982388 381.92738258 404.44732571 382.61168861 C405.18393429 383.32965614 405.92054287 384.04762367 406.67947292 384.78734779 C407.45187313 385.55215462 408.22427334 386.31696144 409.02007961 387.10494423 C410.70020117 388.76693954 412.38369541 390.42553062 414.07012081 392.08112907 C416.74254312 394.70603497 419.40464731 397.34100346 422.06405544 399.97908974 C429.15220373 407.00705845 436.25495428 414.02016879 443.36738229 421.02355707 C448.486759 426.06453603 453.59443702 431.11709129 458.691535 436.18060875 C460.45211404 437.92446133 462.21748539 439.66348989 463.98778439 441.39747429 C466.47213475 443.83111063 468.94046267 446.28002182 471.40603542 448.73266029 C472.13454708 449.43848244 472.86305874 450.14430458 473.61364651 450.87151527 C479.5359928 456.81601136 484.90796795 464.11240973 484.96560574 472.83959389 C484.97205105 473.80445717 484.97849636 474.76932045 484.98513699 475.76342201 C484.96580105 476.73601967 484.94646511 477.70861732 484.92654324 478.71068764 C484.94587917 479.68715248 484.96521511 480.66361732 484.98513699 481.66967201 C484.928957 490.06858033 482.34696188 495.72209166 476.80154324 501.96068764 C475.97654324 502.68256264 475.15154324 503.40443764 474.30154324 504.14818764 C473.57966824 504.82881264 472.85779324 505.50943764 472.11404324 506.21068764 C463.07335645 512.43871631 453.96500497 513.17978526 443.30154324 512.14818764 C430.47245587 509.53741649 421.30964793 497.30382205 412.48123074 488.42553139 C411.48683328 487.42926251 410.49221011 486.43321887 409.49737453 485.43738747 C406.9142121 482.85045678 404.33407004 480.26053506 401.7546072 477.66991615 C399.10805524 475.0130257 396.45857232 472.35906133 393.80935574 469.70482826 C388.63725856 464.52209454 383.46835782 459.33618832 378.30154324 454.14818764 C378.29743435 455.18636635 378.29332546 456.22454506 378.28909206 457.29418373 C378.26712432 461.18985354 378.21265648 465.08453838 378.14895535 468.97973061 C378.12592769 470.65736808 378.11141579 472.335147 378.1059866 474.01293373 C378.06824025 483.7631055 377.99768965 491.80635194 372.30154324 500.14818764 C371.74466824 501.05568764 371.18779324 501.96318764 370.61404324 502.89818764 C364.60546778 508.74436916 357.70310839 512.26726709 349.33807945 512.28520203 C348.08425089 512.29027657 346.83042232 512.29535111 345.53859895 512.30057943 C344.13942559 512.30118112 342.74025219 512.3016802 341.34107876 512.30208778 C339.86068721 512.30610207 338.38029677 512.31054024 336.89990765 512.31536734 C332.82142605 512.32734266 328.74295628 512.33298352 324.66446054 512.33754849 C320.26959002 512.34350102 315.87473367 512.35511181 311.4798727 512.365839 C300.86029795 512.39037206 290.2407185 512.40499202 279.62112412 512.41789907 C276.62195173 512.42161052 273.6227798 512.42558379 270.62360787 512.42965174 C252.00199548 512.4548891 233.38038236 512.4769438 214.75875664 512.48937988 C210.44448691 512.49230962 206.1302172 512.49527128 201.81594753 512.49828529 C200.74364582 512.49903134 199.67134411 512.49977739 198.56654841 512.50054605 C181.19788812 512.51319827 163.82933022 512.54641888 146.46071779 512.58808713 C128.63123818 512.63051054 110.80181099 512.65407544 92.97228104 512.65930045 C82.96067755 512.66271423 72.94923406 512.67446549 62.93768024 512.70740318 C54.4107009 512.73541051 45.88391434 512.74640004 37.35689258 512.73520772 C33.00723145 512.73002271 28.65797398 512.73289743 24.30837154 512.75767326 C20.32254688 512.78018711 16.33741534 512.77940979 12.35157836 512.76046939 C10.91340127 512.75767233 9.47517696 512.76325173 8.03707569 512.77828233 C-0.80186043 512.86497935 -7.19104473 511.95062259 -14.69845676 507.14818764 C-15.60595676 506.59131264 -16.51345676 506.03443764 -17.44845676 505.46068764 C-23.93639383 498.7925301 -26.85029639 491.65841844 -26.83547115 482.49804783 C-26.83812298 481.70742338 -26.84077481 480.91679892 -26.84350699 480.10221615 C-26.85121762 477.43067413 -26.85175984 474.75917793 -26.85235691 472.0876255 C-26.85637038 470.16175579 -26.8608084 468.23588692 -26.86563647 466.31001908 C-26.87762083 461.00016733 -26.88325473 455.69032468 -26.88781762 450.38046205 C-26.89376669 444.6604276 -26.90537829 438.94040407 -26.91610813 433.22037697 C-26.94064845 419.39721281 -26.95526186 405.57404503 -26.9681682 391.75086579 C-26.971879 387.84783624 -26.97585232 383.94480704 -26.97992086 380.04177785 C-27.00515668 355.8148707 -27.0272303 331.58796399 -27.03964901 307.36104679 C-27.04257035 301.74736911 -27.04553786 296.13369144 -27.04855442 290.52001381 C-27.04892533 289.82258368 -27.04929624 289.12515355 -27.04967839 288.40658917 C-27.06183208 265.79765115 -27.0927728 243.18879101 -27.13447594 220.57988956 C-27.17848348 196.67808456 -27.20418393 172.77633118 -27.20956957 148.8744846 C-27.21298554 135.84476419 -27.22476273 122.81516662 -27.25767231 109.78548431 C-27.28565194 98.68935089 -27.29668126 87.59336549 -27.28547685 76.49719953 C-27.28028489 70.83520151 -27.28321231 65.17351356 -27.30794239 59.51156044 C-27.33039963 54.32671391 -27.32972209 49.14240083 -27.31073852 43.95754517 C-27.30793359 42.0833032 -27.31356434 40.20902533 -27.32855146 38.33484118 C-27.46252795 20.48730019 -27.46252795 20.48730019 -21.69845676 12.14818764 C-21.14158176 11.24068764 -20.58470676 10.33318764 -20.01095676 9.39818764 C-14.54795158 4.08283124 -7.70275885 0.04120713 0 0 Z M-3.69845676 23.14818764 C-6.37511383 28.17148707 -7.13271624 32.35583206 -7.07598019 38.04902077 C-7.08034051 38.81814541 -7.08470083 39.58727005 -7.08919328 40.3797015 C-7.10013223 42.95415928 -7.089734 45.52807956 -7.07940769 48.10253334 C-7.08286479 49.96799843 -7.0876297 51.83346148 -7.09358943 53.69892025 C-7.10612186 58.82315745 -7.09991878 63.94722719 -7.09063077 69.07146502 C-7.08384984 74.59846479 -7.09431677 80.12543555 -7.10257053 85.65242958 C-7.11592025 96.47905749 -7.1130246 107.30562305 -7.10433261 118.13225341 C-7.09756136 126.93018274 -7.09663693 135.72809458 -7.09990406 144.52602577 C-7.10036376 145.77751956 -7.10082346 147.02901335 -7.10129709 148.3184312 C-7.10225625 150.86070435 -7.10322889 153.40297749 -7.10421486 155.94525063 C-7.11252837 179.11207509 -7.10390248 202.27886695 -7.08818707 225.44568391 C-7.07395028 246.59360702 -7.07522417 267.74147594 -7.08957005 288.88939857 C-7.10563443 312.65006042 -7.11194838 336.41069603 -7.10273325 360.17136478 C-7.10177759 362.70435969 -7.10083448 365.23735459 -7.09990406 367.7703495 C-7.09944123 369.01667744 -7.09897841 370.26300539 -7.09850156 371.54710084 C-7.09590975 380.33590027 -7.10028678 389.12468049 -7.10734272 397.91347694 C-7.1157508 408.62201448 -7.11349213 419.33048604 -7.09750049 430.03901601 C-7.08960849 435.50413791 -7.08654206 440.96914974 -7.09644794 446.43427086 C-7.10537601 451.43551134 -7.10049306 456.43653953 -7.08451529 461.43776071 C-7.08115949 463.24856366 -7.08287944 465.05938447 -7.09014265 466.87017596 C-7.09925172 469.32949127 -7.08992232 471.78807735 -7.07598019 474.24735451 C-7.08300368 474.95212862 -7.09002718 475.65690273 -7.09726351 476.38303363 C-7.04033446 481.39971219 -6.00849178 484.77929202 -3.69845676 489.14818764 C2.55058151 493.38645151 9.85061091 492.56636287 17.15579128 492.52913857 C18.5757788 492.53259742 19.99576364 492.53736352 21.41574287 492.5433203 C25.30862792 492.55582873 29.20129195 492.54966068 33.09417772 492.54036164 C37.2960153 492.53357084 41.497815 492.54405254 45.69964504 492.55230141 C53.92742474 492.56564059 62.15512233 492.56276017 70.38290524 492.55406348 C77.06985189 492.54728808 83.75677554 492.5463696 90.44372463 492.54963493 C91.39547941 492.55009463 92.34723419 492.55055433 93.32783002 492.55102796 C95.26130717 492.55198714 97.19478431 492.55295978 99.12826145 492.55394574 C117.25808658 492.56250017 135.3878662 492.55266465 153.51768386 492.53654464 C169.07358947 492.52314141 184.62942791 492.52546949 200.1853323 492.53930092 C218.25032596 492.55535577 236.31527974 492.56167619 254.38027954 492.55246413 C256.3066403 492.55150848 258.23300107 492.55056537 260.15936184 492.54963493 C261.10716587 492.54917211 262.05496991 492.54870928 263.03149527 492.54823243 C269.71033733 492.54564226 276.38915408 492.55001412 283.06799221 492.55707359 C291.20737177 492.56548773 299.34666454 492.56321026 307.48603415 492.54723136 C311.63879502 492.53934749 315.79141116 492.53625901 319.94417095 492.54617882 C323.74636154 492.55512384 327.54827338 492.55019616 331.35043871 492.53424616 C333.37597854 492.52931228 335.40153773 492.53909661 337.42705727 492.54941785 C343.75881625 492.50840905 348.80429315 492.46292492 354.30154324 489.14818764 C356.50797977 485.83853283 356.57185624 484.73154961 356.639678 480.86986732 C356.66212078 479.7915464 356.68456356 478.71322548 356.70768642 477.60222816 C356.71932323 476.43661354 356.73096004 475.27099892 356.74294949 474.07006264 C356.76360722 472.27015877 356.76360722 472.27015877 356.78468227 470.4338932 C356.80797513 467.8919277 356.82522987 465.34990084 356.83694363 462.80785561 C356.86384581 458.92666964 356.93873727 455.04821719 357.01443386 451.16771889 C357.03109295 448.69768514 357.04485876 446.22762985 357.05544949 443.75756264 C357.08530437 442.60004494 357.11515926 441.44252724 357.14591885 440.24993324 C357.11530484 434.61477066 356.92109241 431.0469115 352.90969753 426.86889076 C350.24728314 424.53652302 350.24728314 424.53652302 346.81716824 424.00756264 C345.98701199 424.38396889 345.15685574 424.76037514 344.30154324 425.14818764 C343.18263699 425.62771889 342.06373074 426.10725014 340.91091824 426.60131264 C339.62389294 427.19905172 338.3374658 427.7980799 337.05154324 428.39818764 C331.31856902 430.98308532 325.584539 433.18077507 319.55154324 434.96068764 C318.58039577 435.2521769 318.58039577 435.2521769 317.58962917 435.54955482 C306.42662153 438.7143537 295.37051403 439.55863273 283.80154324 439.52318764 C283.09977962 439.52231148 282.39801601 439.52143532 281.67498684 439.52053261 C246.81433917 439.37750086 215.60430193 425.91493692 190.55154324 401.77318764 C185.98075648 397.04802776 181.88726528 392.07744465 177.88357449 386.87475014 C177.45964413 386.33740746 177.03571377 385.80006477 176.59893703 385.24643898 C175.30154324 383.14818764 175.30154324 383.14818764 174.32812405 379.98267555 C172.66686335 375.71377459 171.2122593 372.67975625 167.30154324 370.14818764 C158.61597373 367.77324065 149.13645379 368.64149593 140.20233846 368.89592957 C136.56825349 368.98506165 132.93390677 368.99818531 129.29890347 369.01908302 C122.41891784 369.06971181 115.54166488 369.18487421 108.66298026 369.32502383 C98.5668098 369.5277353 88.46951439 369.63119492 78.37194252 369.73697376 C76.88031054 369.75275907 75.38867903 369.76858874 73.897048 369.78446388 C72.80452961 369.79594114 72.80452961 369.79594114 71.68994015 369.80765027 C67.36729664 369.85520849 63.04538477 369.92068281 58.72325575 370.00247824 C56.68312802 370.04045033 54.64297621 370.07423166 52.60275173 370.1065464 C50.11775554 370.14697431 47.63286873 370.19517434 45.14820766 370.25261879 C44.05064144 370.26865654 42.95307522 370.28469429 41.82224941 370.30121803 C40.87120988 370.31994626 39.92017035 370.33867449 38.94031143 370.35797024 C35.27880909 370.06688007 32.44446735 369.01540637 29.52029324 366.79662514 C27.96329952 364.69069133 27.83710528 363.37810731 27.80154324 360.77318764 C27.77060574 360.02295326 27.73966824 359.27271889 27.70779324 358.49975014 C28.38918268 355.8010893 29.45072384 354.14233533 31.46553516 352.22240067 C35.61365647 349.79541463 40.77355304 350.45410396 45.43557644 350.48876381 C46.66525646 350.47828011 47.89493649 350.4677964 49.16187954 350.45699501 C52.52556565 350.43315906 55.88790858 350.43131382 59.25157857 350.43928885 C62.76972761 350.44241644 66.28767421 350.41737232 69.8057394 350.39533424 C76.4638112 350.35789769 83.12167875 350.34574651 89.77984542 350.34270984 C97.36153574 350.33801856 104.94302153 350.30509311 112.52462161 350.26981199 C128.11691407 350.19788467 143.70908374 350.16136191 159.30154324 350.14818764 C159.0243948 349.00221107 158.74724636 347.85623451 158.46169949 346.67553139 C158.09564784 345.14562323 157.72977176 343.61567307 157.36404324 342.08568764 C157.18164089 341.33351967 156.99923855 340.5813517 156.81130886 339.80639076 C148.87936032 306.49220689 155.16506783 270.793966 172.49294949 241.51537514 C177.06568973 234.17737952 182.56542719 227.59633398 188.30154324 221.14818764 C189.06080105 220.28709389 189.82005886 219.42600014 190.60232449 218.53881264 C211.96266008 195.85099856 244.08486273 181.97415916 274.97732449 180.76928139 C302.79287342 180.0384496 327.26226909 185.01523843 351.27419949 199.42553139 C354.0107307 201.31304366 354.0107307 201.31304366 356.30154324 201.14818764 C356.30154324 173.75818764 356.30154324 146.36818764 356.30154324 118.14818764 C332.06945757 118.01735768 332.06945757 118.01735768 307.83718777 117.94042397 C303.1216116 117.89953041 303.1216116 117.89953041 300.90527248 117.87406349 C299.3765952 117.86109258 297.84781645 117.85769596 296.31909084 117.86222267 C285.45614904 117.88534713 277.16609425 116.9701518 268.48904324 109.83568764 C262.97249706 103.05821662 260.16871532 97.64643831 260.09622097 88.83104897 C260.08632137 88.08933952 260.07642178 87.34763008 260.06622219 86.5834446 C260.03464067 84.1324018 260.00986303 81.68133963 259.98513699 79.23021889 C259.96456457 77.53056269 259.94356802 75.83091157 259.92216396 74.13126564 C259.86697303 69.65804601 259.81755061 65.18478043 259.76931667 60.71148109 C259.71907991 56.14672189 259.6634052 51.5820294 259.60818386 47.01732826 C259.50063872 38.06100505 259.39918563 29.1046239 259.30154324 20.14818764 C226.80782022 20.07974582 194.31411799 20.02665653 161.82033935 19.99499165 C157.98391435 19.99123954 154.1474895 19.98735657 150.31106472 19.98339272 C149.54730351 19.98260578 148.7835423 19.98181885 147.99663682 19.98100808 C135.63087844 19.96795513 123.26516191 19.9443019 110.89942836 19.91672925 C98.21048793 19.88867195 85.52156941 19.87201069 72.83259922 19.86592215 C65.00318979 19.86180638 57.17389866 19.84880831 49.34452564 19.82443824 C43.34034844 19.80670167 37.33627295 19.80482284 31.33206654 19.80886459 C28.86939929 19.80803853 26.40672761 19.80206149 23.94408703 19.79057121 C20.5832511 19.77565786 17.22292238 19.77923023 13.86207485 19.78742409 C12.39853554 19.7743163 12.39853554 19.7743163 10.90542978 19.76094371 C5.30871984 19.79785489 1.09396978 20.11685193 -3.69845676 23.14818764 Z M279.30154324 36.14818764 C279.22530585 43.4255443 279.17286457 50.70279745 279.13674831 57.98046303 C279.12168764 60.45478603 279.10123499 62.92908246 279.07522488 65.40331459 C279.03872294 68.96547454 279.0217892 72.52728064 279.00857449 76.08959389 C278.99309063 77.19090141 278.97760677 78.29220894 278.96165371 79.42688942 C278.96035816 85.376245 278.99159514 90.08831659 282.30154324 95.14818764 C288.23083328 99.02687192 294.4622852 98.53813688 301.36013699 98.44115639 C302.50442669 98.43691154 303.64871639 98.4326667 304.82768154 98.42829323 C308.46504634 98.41156568 312.10184725 98.37392328 315.73904324 98.33568764 C318.2123425 98.32063319 320.68565049 98.30694612 323.15896511 98.29467201 C329.20668197 98.2616815 335.2540723 98.21154077 341.30154324 98.14818764 C335.56310827 91.13510747 329.12538052 84.82676544 322.71951199 78.43334389 C321.49722341 77.2103809 320.27508324 75.98726957 319.05308437 74.76401711 C316.50544432 72.21490987 313.95602182 69.66760272 311.405303 67.12157631 C308.12877635 63.85078286 304.85680845 60.57547133 301.58613014 57.29883099 C299.07017364 54.77927331 296.55185571 52.26208684 294.03279972 49.74562836 C292.82433804 48.5378353 291.61662301 47.32929473 290.40965748 46.12000656 C288.73173186 44.4395578 287.05066316 42.76231982 285.36868191 41.08593178 C284.6167783 40.33099182 284.6167783 40.33099182 283.84968472 39.56080055 C281.91111715 37.18224675 281.91111715 37.18224675 279.30154324 36.14818764 Z M251.30154324 205.14818764 C250.16201199 205.5104142 249.02248074 205.87264076 247.84841824 206.24584389 C217.94433987 216.9000747 195.78971537 238.50297544 182.25173855 266.99584389 C172.06827219 290.06301743 170.661856 318.16823262 178.30154324 342.14818764 C178.84488308 343.85748451 178.84488308 343.85748451 179.39919949 345.60131264 C190.0534303 375.505391 211.65633104 397.6600155 240.14919949 411.19799232 C263.21637303 421.38145868 291.32158822 422.78787488 315.30154324 415.14818764 C316.44107449 414.78596107 317.58060574 414.42373451 318.75466824 414.05053139 C348.6587466 403.39630057 370.8133711 381.79339983 384.35134792 353.30053139 C395.19723291 328.73287414 396.27057714 298.05146596 386.75857449 272.92553139 C385.13084282 268.90024001 383.2724432 265.01527107 381.30154324 261.14818764 C380.99732449 260.54136147 380.69310574 259.93453529 380.37966824 259.30932045 C375.54193172 249.81321266 369.45035871 241.99022158 362.30154324 234.14818764 C361.71888699 233.48303139 361.13623074 232.81787514 360.53591824 232.13256264 C344.19543459 214.47163587 317.92062313 202.56927468 294.08865261 200.92675209 C279.42426611 200.4260534 265.35353272 200.67141507 251.30154324 205.14818764 Z M383.30154324 393.14818764 C381.48617845 395.00804666 379.76034753 396.88178675 378.05154324 398.83568764 C374.38372855 403.01658997 370.65582074 406.67635986 366.30154324 410.14818764 C367.63992186 413.12248014 369.11084819 415.20698719 371.41384792 417.50773048 C372.05318264 418.15125969 372.69251736 418.79478889 373.35122585 419.45781898 C374.05154934 420.15252296 374.75187283 420.84722694 375.47341824 421.56298256 C376.21176907 422.30323174 376.9501199 423.04348091 377.71084499 423.80616188 C380.15288488 426.25190682 382.60205142 428.69037658 385.05154324 431.12865639 C386.74819674 432.82411798 388.44448097 434.51994918 390.14041042 436.21613503 C393.69494201 439.76910229 397.25280971 443.31868303 400.81326199 446.86571693 C405.38514237 451.42058823 409.95039289 455.98203409 414.51339626 460.54579639 C418.01484677 464.04697549 421.51889362 467.54554606 425.02383327 471.04323196 C426.70860877 472.72481779 428.39277267 474.40701659 430.07632351 476.08982849 C432.42493064 478.43627633 434.77679574 480.77940657 437.12966824 483.12157631 C437.82999172 483.82235298 438.53031521 484.52312965 439.25186062 485.24514198 C439.89119534 485.88021172 440.53053005 486.51528145 441.18923855 487.16959572 C441.74524746 487.72392879 442.30125637 488.27826185 442.87411404 488.84939289 C446.10430572 491.78849207 449.49729396 491.5921735 453.68435574 491.57396889 C457.97841894 490.87538249 460.55153493 488.39437482 463.30154324 485.14818764 C464.47161179 482.80805052 464.63990729 481.13360811 464.80154324 478.52318764 C464.87373074 477.70592201 464.94591824 476.88865639 465.02029324 476.04662514 C463.23068236 468.82982477 455.08793086 462.7856867 449.92922878 457.63060951 C449.2291621 456.92718422 448.52909542 456.22375893 447.8078146 455.49901772 C445.52057563 453.20236985 443.22966968 450.90942579 440.93826199 448.61693764 C439.33872709 447.01418662 437.73926637 445.41136157 436.13987637 443.80846596 C432.80222678 440.46485291 429.46254139 437.12328857 426.1216116 433.78295326 C421.83121894 429.49266288 417.54778356 425.19549678 413.26602364 420.89659309 C409.97272816 417.59221791 406.67493721 414.29235831 403.37583256 410.99378395 C401.79330744 409.41007565 400.2124108 407.8247384 398.63315296 406.23777199 C396.43575064 404.03063752 394.23218261 401.82985128 392.02688503 399.63060951 C391.37181973 398.9699247 390.71675442 398.30923988 390.04183865 397.62853432 C387.20076228 394.31459227 387.20076228 394.31459227 383.30154324 393.14818764 Z " fill="#000000" transform="translate(27.69845676422119,-0.14818763732910156)"/>
<path d="M0 0 C1.60681641 0.56074219 1.60681641 0.56074219 3.24609375 1.1328125 C25.06936442 9.52851663 41.82445591 26.19565818 52 47 C60.72849323 67.74405262 62.50324848 91.57625104 55 113 C54.649375 114.03640625 54.29875 115.0728125 53.9375 116.140625 C45.9685283 137.28053603 29.66872585 154.67099107 9.375 164.4375 C-11.77391314 173.46034087 -36.06464272 175.70633677 -58 168 C-59.07121094 167.62617188 -60.14242187 167.25234375 -61.24609375 166.8671875 C-83.06936442 158.47148337 -99.82445591 141.80434182 -110 121 C-118.72248883 100.27021739 -120.52116265 76.40827669 -113 55 C-112.43925781 53.39318359 -112.43925781 53.39318359 -111.8671875 51.75390625 C-103.47148337 29.93063558 -86.80434182 13.17554409 -66 3 C-45.27021739 -5.72248883 -21.40827669 -7.52116265 0 0 Z M-51 20 C-51.91652344 20.36351562 -52.83304688 20.72703125 -53.77734375 21.1015625 C-71.47009093 28.62522728 -84.44719955 41.22363697 -92 59 C-97.43529201 73.25911335 -98.90207905 91.66975206 -93 106 C-92.63648438 106.91652344 -92.27296875 107.83304687 -91.8984375 108.77734375 C-84.37477272 126.47009093 -71.77636303 139.44719955 -54 147 C-39.74088665 152.43529201 -21.33024794 153.90207905 -7 148 C-6.08347656 147.63648438 -5.16695313 147.27296875 -4.22265625 146.8984375 C13.47009093 139.37477272 26.44719955 126.77636303 34 109 C39.43529201 94.74088665 40.90207905 76.33024794 35 62 C34.63648438 61.08347656 34.27296875 60.16695312 33.8984375 59.22265625 C26.37477272 41.52990907 13.77636303 28.55280045 -4 21 C-18.25911335 15.56470799 -36.66975206 14.09792095 -51 20 Z " fill="#000000" transform="translate(340,226)"/>
<path d="M0 0 C0.7906879 -0.00297112 1.58137579 -0.00594224 2.39602393 -0.0090034 C5.04826229 -0.01768224 7.70045547 -0.01919796 10.35270691 -0.02069092 C12.25324602 -0.02531964 14.15378419 -0.03034438 16.05432129 -0.03573608 C21.2196786 -0.04885623 26.38502292 -0.05530421 31.5503943 -0.05974674 C34.77737939 -0.06267788 38.00436092 -0.06678276 41.23134422 -0.07125092 C51.32754017 -0.08492438 61.423728 -0.09459197 71.51993257 -0.09845281 C83.17522804 -0.10293434 94.83040628 -0.12048733 106.4856661 -0.1494534 C115.49470123 -0.17106603 124.50370337 -0.18115685 133.51276416 -0.18249393 C138.89363434 -0.18354218 144.2743943 -0.1894546 149.6552372 -0.20731354 C154.71709521 -0.22378708 159.77876005 -0.22595316 164.8406353 -0.21717453 C166.69698224 -0.21640379 168.55333954 -0.22075169 170.40966034 -0.23063278 C172.94708342 -0.24334576 175.48382166 -0.23747918 178.02124023 -0.22705078 C178.75296583 -0.23510719 179.48469144 -0.24316359 180.23859054 -0.25146413 C185.34300346 -0.20251932 188.76697995 0.77008312 193.20109558 3.14044189 C195.88015288 7.15902784 195.89720252 10.41685911 195.20109558 15.14044189 C193.4071589 18.01074058 192.21846282 19.63175828 189.20109558 21.14044189 C186.59262817 21.24477822 184.0104728 21.28823845 181.40145874 21.28761292 C180.58656725 21.2912896 179.77167575 21.29496629 178.93209058 21.29875439 C176.18605928 21.30981728 173.44006578 21.31363946 170.6940155 21.31744385 C168.73141356 21.32370648 166.76881282 21.3303531 164.80621338 21.33735657 C159.46319542 21.35478376 154.12018641 21.3653228 148.77714705 21.3735621 C145.44130722 21.37870811 142.1054702 21.38478399 138.76963234 21.39107323 C128.33919191 21.41012924 117.90875859 21.42436007 107.47830409 21.4326852 C95.42561324 21.44246316 83.37310578 21.46879563 71.32047957 21.50918609 C62.0125809 21.53931153 52.70473491 21.55415064 43.39678842 21.55746621 C37.83370959 21.55982059 32.27082658 21.56883147 26.70779991 21.59392738 C21.4752161 21.61715092 16.24295784 21.62146438 11.01033592 21.611166 C9.08864257 21.61066915 7.16693351 21.61703331 5.24528885 21.63072205 C2.62369381 21.64835359 0.00327818 21.64137833 -2.61831665 21.62818909 C-3.38057786 21.63915833 -4.14283908 21.65012758 -4.92819911 21.66142923 C-9.83313317 21.60176286 -12.36297761 20.6489035 -15.79890442 17.14044189 C-17.53790274 13.66244524 -17.38869478 9.93475989 -16.79890442 6.14044189 C-12.05432209 -0.18566788 -7.41195862 -0.00869742 0 0 Z " fill="#000000" transform="translate(71.79890441894531,71.85955810546875)"/>
<path d="M0 0 C0.64423672 -0.00453111 1.28847344 -0.00906223 1.95223248 -0.01373065 C4.11480346 -0.0264089 6.27712371 -0.02475211 8.43972778 -0.02310181 C9.98869146 -0.02908495 11.53765214 -0.03589 13.08660889 -0.04345703 C17.29739237 -0.06114646 21.5080946 -0.06581365 25.71891165 -0.0670886 C29.23285379 -0.06898648 32.74677695 -0.07634276 36.26071179 -0.08343279 C44.5508623 -0.09972565 52.84096936 -0.10460094 61.13113403 -0.10317993 C69.68527518 -0.10197835 78.23916408 -0.1230813 86.79324138 -0.15466726 C94.13515724 -0.18081209 101.47699062 -0.19154798 108.81895268 -0.19026911 C113.20495218 -0.18975893 117.59072758 -0.19547273 121.97668076 -0.21662521 C126.10209646 -0.23597745 130.22707363 -0.23615299 134.35250473 -0.22159195 C135.86621744 -0.21949895 137.37995738 -0.22423398 138.89362335 -0.23631287 C140.96133687 -0.25174362 143.02753414 -0.24247424 145.09521484 -0.22705078 C146.25185575 -0.22814032 147.40849667 -0.22922985 148.6001873 -0.2303524 C152.33370267 0.37414256 153.9909709 1.65515159 156.67459106 4.26742554 C158.41358939 7.74542219 158.26438143 11.47310754 157.67459106 15.26742554 C155.00151985 18.83152049 153.01075596 20.51562906 148.67459106 21.26742554 C146.62078424 21.36277717 144.5641445 21.40231126 142.50813293 21.40786743 C141.24221313 21.41357758 139.97629333 21.41928772 138.67201233 21.4251709 C137.27142344 21.42641617 135.87083444 21.42754129 134.47024536 21.42855835 C132.99334591 21.43318834 131.51644765 21.43821324 130.03955078 21.44360352 C126.02911541 21.45671176 122.01869677 21.46316935 118.00824332 21.46761417 C115.50154951 21.47054733 112.99486024 21.47465259 110.48816872 21.47911835 C102.64197902 21.49278888 94.79579975 21.50245782 86.94959897 21.50632024 C77.89839221 21.5108006 68.84733649 21.52834929 59.79617566 21.55732083 C52.79561577 21.5789494 45.79509835 21.58902514 38.79450542 21.59036136 C34.6152861 21.59140851 30.43620885 21.59729715 26.25702477 21.61518097 C22.32453752 21.63168212 18.39229884 21.63380733 14.45978928 21.62504196 C13.0194806 21.62427269 11.57915845 21.62859986 10.13888359 21.63850021 C-3.54807404 21.72703845 -3.54807404 21.72703845 -9.32540894 18.26742554 C-11.63020736 15.5165371 -12.25621218 13.82099955 -12.70040894 10.26742554 C-12.27238088 6.84320112 -11.38622959 5.01518641 -9.32540894 2.26742554 C-5.76190197 -0.10824578 -4.2297339 0.01226482 0 0 Z " fill="#000000" transform="translate(109.32540893554688,141.73257446289063)"/>
<path d="M0 0 C1.27848312 -0.01073296 1.27848312 -0.01073296 2.58279419 -0.02168274 C3.5199527 -0.02437164 4.45711121 -0.02706055 5.42266846 -0.02983093 C6.40818695 -0.03640213 7.39370544 -0.04297333 8.40908813 -0.04974365 C11.68086823 -0.06950542 14.95260235 -0.08114595 18.22442627 -0.09111023 C19.34042458 -0.09518576 20.45642288 -0.09926128 21.60623932 -0.10346031 C27.51347164 -0.12433377 33.42068065 -0.13862972 39.32794189 -0.147995 C45.4324396 -0.15905938 51.53657279 -0.19345633 57.64094162 -0.23316669 C62.33183473 -0.25930262 67.02264063 -0.26768419 71.71360016 -0.27127647 C73.96386424 -0.27615058 76.21412422 -0.2877879 78.46431732 -0.30631447 C81.61479112 -0.33063991 84.76431716 -0.32975257 87.91485596 -0.32279968 C89.30844833 -0.34201477 89.30844833 -0.34201477 90.73019409 -0.36161804 C96.26762772 -0.31709411 99.60170666 0.33619474 103.92755127 4.14717102 C105.93022148 8.39283186 106.14937246 10.36427271 104.86505127 14.89717102 C102.69283188 18.54089386 101.75820027 19.45340266 97.92755127 21.14717102 C94.67792776 21.57926657 91.45800192 21.55703796 88.18365479 21.53535461 C86.71935028 21.54324005 86.71935028 21.54324005 85.22546387 21.55128479 C82.00229841 21.56447562 78.77962791 21.55574904 75.55645752 21.54560852 C73.31353155 21.54762968 71.07060622 21.55054146 68.8276825 21.55430603 C64.12775412 21.55872829 59.42799686 21.55230194 54.72808838 21.5382843 C48.70777781 21.52120252 42.68786877 21.53102809 36.66757298 21.54900169 C32.0358529 21.55985048 27.40422776 21.55638795 22.77250481 21.54861832 C20.55296722 21.54661884 18.33342099 21.54906672 16.11389351 21.55605698 C13.00931146 21.56368817 9.90537625 21.55204291 6.80084229 21.53535461 C5.42834572 21.54446365 5.42834572 21.54446365 4.02812195 21.55375671 C-1.06950957 21.50307424 -4.69217051 21.05214785 -9.07244873 18.14717102 C-11.74081284 14.14462486 -11.90647253 10.85403803 -11.07244873 6.14717102 C-7.7223582 1.91547771 -5.32150854 0.03062618 0 0 Z " fill="#000000" transform="translate(66.07244873046875,210.8528289794922)"/>
<path d="M0 0 C0.89802841 -0.0049649 1.79605682 -0.00992981 2.72129822 -0.01504517 C5.69002043 -0.02964188 8.65868922 -0.03646422 11.62744141 -0.04199219 C13.69243369 -0.04774515 15.75742596 -0.05350286 17.82241821 -0.05926514 C22.1516342 -0.06976766 26.48083166 -0.07561541 30.81005859 -0.07910156 C36.35394031 -0.08458844 41.8975767 -0.10862387 47.44138145 -0.13707352 C51.7067842 -0.15570686 55.97212789 -0.16090585 60.2375679 -0.16243744 C62.28128019 -0.16546229 64.32499148 -0.17348515 66.36866379 -0.18662262 C69.22903832 -0.20369948 72.08881376 -0.20179893 74.94921875 -0.1953125 C76.21186302 -0.20913467 76.21186302 -0.20913467 77.50001526 -0.22323608 C82.42444776 -0.18829916 85.86762092 0.37178777 90.10400391 3.16113281 C92.54172116 7.12242335 93.23154205 9.22053902 92.60400391 13.84863281 C90.84944 17.72329476 89.72695215 18.95607155 86.10400391 21.16113281 C82.94066528 21.74036784 79.82850489 21.7078865 76.61962891 21.67871094 C75.19680603 21.68922485 75.19680603 21.68922485 73.74523926 21.69995117 C70.61452835 21.71753446 67.48472377 21.70590692 64.35400391 21.69238281 C62.17594225 21.69507762 59.99788176 21.69895995 57.81982422 21.70397949 C53.25688209 21.70987501 48.69425334 21.7013096 44.13134766 21.68261719 C38.283458 21.65982792 32.43630266 21.67295067 26.58843994 21.69690704 C22.0914151 21.71136338 17.59456427 21.70675971 13.09753418 21.69639587 C10.94136468 21.69372815 8.78517936 21.69699993 6.62902832 21.70631409 C3.61505303 21.71647668 0.60226574 21.70098198 -2.41162109 21.67871094 C-3.74743225 21.69085632 -3.74743225 21.69085632 -5.11022949 21.70324707 C-9.23570815 21.64679167 -11.35900413 21.49913231 -14.92626953 19.25378418 C-18.20958717 15.76556441 -18.29243294 13.06734675 -18.24755859 8.42285156 C-17.89599609 6.16113281 -17.89599609 6.16113281 -15.64599609 3.16113281 C-10.74581471 -0.40263547 -5.89315066 0.00778863 0 0 Z " fill="#000000" transform="translate(72.89599609375,279.8388671875)"/>
<path d="M0 0 C1.31734383 -0.0098568 1.31734383 -0.0098568 2.66130066 -0.01991272 C5.57595907 -0.03966892 8.49056588 -0.05131402 11.40527344 -0.0612793 C12.39991356 -0.06535482 13.39455368 -0.06943035 14.41933441 -0.07362938 C19.68466485 -0.0945009 24.94996915 -0.10879744 30.21533203 -0.11816406 C35.65397426 -0.12922543 41.09220699 -0.16361923 46.5307045 -0.20333576 C50.71204386 -0.22948434 54.89328546 -0.23785439 59.0746994 -0.24144554 C61.07935092 -0.24631674 63.08399792 -0.25794585 65.08856964 -0.27648354 C67.89661554 -0.30083538 70.70359955 -0.29991705 73.51171875 -0.29296875 C74.33792221 -0.30577881 75.16412567 -0.31858887 76.0153656 -0.33178711 C81.30137335 -0.28418283 84.32252616 0.66269498 88.51464844 4.17700195 C90.2509648 7.64963468 90.11655246 11.38893208 89.51464844 15.17700195 C87.33305699 17.93269642 85.6428735 19.61288942 82.51464844 21.17700195 C79.70887013 21.28594905 76.92753622 21.33433186 74.12109375 21.33813477 C73.2526181 21.34309967 72.38414246 21.34806458 71.48934937 21.35317993 C68.60714941 21.367822 65.72500453 21.37460769 62.84277344 21.38012695 C60.84218341 21.38587764 58.8415934 21.39163539 56.84100342 21.3973999 C52.64106997 21.40791634 48.4411557 21.41375449 44.24121094 21.41723633 C38.86317649 21.42271604 33.48539587 21.44673024 28.10744095 21.47520828 C23.97242498 21.49384786 19.8374699 21.49904102 15.70241547 21.5005722 C13.72010666 21.50359733 11.7377989 21.51162113 9.75553131 21.52475739 C6.97875285 21.54184194 4.20259118 21.53993148 1.42578125 21.53344727 C0.60892853 21.54266205 -0.20792419 21.55187683 -1.04953003 21.56137085 C-5.91795953 21.52581891 -9.28283049 20.90207343 -13.48535156 18.17700195 C-16.15371567 14.17445579 -16.31937537 10.88386896 -15.48535156 6.17700195 C-10.76495921 0.21440109 -7.20592087 0.02322428 0 0 Z " fill="#000000" transform="translate(70.4853515625,418.822998046875)"/>
<path d="M0 0 C11.31489246 2.34151374 20.89046999 9.48486976 27.5703125 18.76953125 C32.3933671 26.29402353 35.28226455 33.51318639 35.4375 42.5625 C35.47746094 43.84253906 35.51742187 45.12257813 35.55859375 46.44140625 C34.85751901 50.90769359 33.59099169 52.32564294 30 55 C27.5 55.6640625 27.5 55.6640625 25 55.625 C24.175 55.63789063 23.35 55.65078125 22.5 55.6640625 C18.82870096 54.68887369 17.33352651 52.95393236 15 50 C14.06640625 46.765625 14.06640625 46.765625 13.5625 43.25 C12.13246743 35.74625766 10.17401351 29.97306927 3.7734375 25.4140625 C-0.67649267 22.9701326 -4.8041656 21.74922523 -9.8125 21 C-13.3882511 20.43274203 -15.04188135 19.97372151 -18.1875 18 C-20.40887581 14.32324005 -20.59803507 11.7257554 -20.6640625 7.5 C-18.01504961 -2.4727544 -8.12099711 -0.86481207 0 0 Z " fill="#000000" transform="translate(321,265)"/>
<path d="M0 0 C5.57894737 3.15789474 5.57894737 3.15789474 7 6 C7.42071592 9.05920574 7.48514117 11.9467746 7 15 C4.81840855 17.75569447 3.12822506 19.43588747 0 21 C-5.26883876 21.59873168 -7.8846468 20.25400021 -12 17 C-13.73631636 13.52736727 -13.60190402 9.78806987 -13 6 C-9.08606917 1.05608737 -6.27104539 -0.60298513 0 0 Z " fill="#000000" transform="translate(194,419)"/>
<path d="M0 0 C3.348157 2.37161121 4.65750859 4.01533721 6 7.875 C6 12.0430077 5.15607248 14.42900496 3 18 C-0.9794887 20.52544475 -3.01394307 21.15041546 -7.6875 20.4375 C-12.98927614 18.13672922 -12.98927614 18.13672922 -15 15 C-15.84715191 10.33629773 -15.65619755 7.04991608 -13.125 3 C-9.19474161 -0.69906672 -5.20854797 -0.79162733 0 0 Z " fill="#000000" transform="translate(70,142)"/>
</svg>
