<?xml version="1.0" encoding="UTF-8"?>
<svg version="1.1" xmlns="http://www.w3.org/2000/svg" width="512" height="512">
<path d="M0 0 C0.74474579 -0.0065712 1.48949158 -0.0131424 2.25680542 -0.01991272 C4.73199554 -0.03969249 7.20712484 -0.05131903 9.68237305 -0.0612793 C10.52597067 -0.06535482 11.36956829 -0.06943035 12.23872948 -0.07362938 C16.70423515 -0.09451075 21.16970992 -0.1088031 25.63525391 -0.11816406 C30.25245952 -0.12922895 34.86918324 -0.16362354 39.48621845 -0.20333576 C43.0318238 -0.22946052 46.57731368 -0.23785222 50.12300682 -0.24144554 C51.82508789 -0.24632278 53.52716342 -0.25796906 55.22915077 -0.27648354 C57.61149028 -0.30078646 59.99257494 -0.29992667 62.375 -0.29296875 C63.07905472 -0.30577881 63.78310944 -0.31858887 64.50849915 -0.33178711 C67.90306873 -0.29563171 69.59807986 -0.04587971 72.30239868 2.08010864 C73.95753605 4.27784269 74.55857919 5.65991926 75.04174805 8.3449707 C75.19417969 9.14805664 75.34661133 9.95114258 75.50366211 10.77856445 C75.64900391 11.63192383 75.7943457 12.4852832 75.9440918 13.36450195 C76.18724121 14.68514648 76.18724121 14.68514648 76.43530273 16.0324707 C76.76772885 17.85069133 77.09304735 19.67022529 77.41137695 21.4909668 C77.85794563 24.04192659 78.32505924 26.58814133 78.79956055 29.1340332 C79.07790774 30.648172 79.35530071 32.16248662 79.6315918 33.67700195 C79.75928955 34.37591553 79.8869873 35.0748291 80.01855469 35.79492188 C80.58300735 39.00512242 80.8815918 41.90022507 80.8815918 45.17700195 C82.79584961 45.55791992 82.79584961 45.55791992 84.7487793 45.9465332 C90.03197257 47.12436117 94.96583035 48.91535141 100.0065918 50.86450195 C100.93109131 51.2015918 101.85559082 51.53868164 102.80810547 51.88598633 C107.12737257 53.50313313 111.00402889 55.08678873 114.73706055 57.8215332 C118.26577523 60.3086245 121.42497863 62.52258904 125.8815918 62.17700195 C134.78912237 58.49075818 142.38516853 52.11787602 149.8815918 46.17700195 C151.3752432 45.01035571 152.87334022 43.84935717 154.37768555 42.6965332 C154.97379639 42.232229 155.56990723 41.7679248 156.18408203 41.28955078 C159.10887785 39.372638 161.43403099 39.04931452 164.8815918 39.17700195 C169.06021744 41.64374009 172.4426748 44.48921392 175.86132812 47.91381836 C176.54785965 48.59750237 176.54785965 48.59750237 177.2482605 49.29499817 C178.74162841 50.78469722 180.22773441 52.28140825 181.71362305 53.77856445 C182.7560381 54.82217308 183.7988247 55.86541069 184.84196472 56.90829468 C187.01771424 59.08560206 189.19008123 61.26620891 191.35986328 63.44946289 C194.14346987 66.2501324 196.93368825 69.04409969 199.72621632 71.83587074 C201.87544357 73.98536948 204.02205839 76.13746081 206.16779137 78.29044724 C207.19626545 79.32210524 208.22534787 80.35315716 209.25504494 81.38359451 C210.68882846 82.8195403 212.11892128 84.2591684 213.54882812 85.69897461 C214.36346024 86.51741852 215.17809235 87.33586243 216.01741028 88.17910767 C218.4517971 90.78810656 218.84004908 91.77245498 219.2097168 95.37231445 C218.82046725 99.88575558 217.21984942 102.49599902 214.6315918 106.05200195 C213.97453247 107.00224243 213.97453247 107.00224243 213.30419922 107.97167969 C210.77604896 111.60664219 208.15201498 115.16690708 205.51049805 118.7199707 C204.95845703 119.47358887 204.40641602 120.22720703 203.83764648 121.00366211 C202.75973015 122.47002542 201.66573344 123.92473144 200.55444336 125.3659668 C197.57182544 129.38917667 197.57182544 129.38917667 196.8269043 134.23950195 C198.07404072 137.71300783 199.67231253 140.88967179 201.4440918 144.11450195 C205.62827601 151.95593801 208.38168341 160.09933924 210.82714844 168.63378906 C211.12484131 169.58390869 211.42253418 170.53402832 211.72924805 171.51293945 C211.97682861 172.3642041 212.22440918 173.21546875 212.47949219 174.0925293 C215.15480295 178.06985879 220.09563098 178.01988333 224.53442383 178.90722656 C226.44263916 179.23992554 226.44263916 179.23992554 228.3894043 179.5793457 C229.8022334 179.83221746 231.21499182 180.08548439 232.62768555 180.33911133 C234.82341022 180.72950065 237.01954952 181.11674458 239.21704102 181.49707031 C241.35955214 181.86958756 243.4994791 182.2547872 245.6394043 182.6418457 C246.90929199 182.86477295 248.17917969 183.0877002 249.48754883 183.31738281 C252.84339014 184.16732651 255.12574754 185.0981604 257.8815918 187.17700195 C259.0543566 190.69529636 259.03751827 193.51715337 259.07446289 197.23120117 C259.08264038 197.94537201 259.09081787 198.65954285 259.09924316 199.39535522 C259.12404505 201.75745817 259.14059803 204.11950132 259.1550293 206.48168945 C259.16035297 207.28910709 259.16567665 208.09652473 259.17116165 208.92840958 C259.19786818 213.2005544 259.21725267 217.47267023 259.23168945 221.74487305 C259.24503987 225.27964085 259.2729154 228.81383288 259.3137207 232.34838867 C259.36301356 236.61833026 259.38780581 240.88774883 259.39491653 245.1579628 C259.40163127 246.78388301 259.4168593 248.40979146 259.44080734 250.03554916 C259.47243689 252.31232311 259.47250056 254.58707761 259.46508789 256.86401367 C259.47317474 258.15846405 259.4812616 259.45291443 259.48959351 260.78659058 C258.71886692 265.08440775 257.28549776 266.52214163 253.8815918 269.17700195 C251.85115051 270.03729248 251.85115051 270.03729248 249.85742188 270.37133789 C249.10346634 270.50787781 248.3495108 270.64441772 247.57270813 270.78509521 C246.77358505 270.90926819 245.97446198 271.03344116 245.15112305 271.16137695 C244.31949142 271.30730286 243.4878598 271.45322876 242.63102722 271.60357666 C239.98820264 272.06352753 237.34178164 272.49603307 234.6940918 272.92700195 C232.03696555 273.37806252 229.3808505 273.83464297 226.72502136 274.29327393 C225.07552365 274.57609593 223.42507072 274.85341282 221.77363586 275.12469482 C217.70676392 275.74636928 217.70676392 275.74636928 213.8815918 277.17700195 C213.09131003 278.90210588 213.09131003 278.90210588 212.47924805 281.0012207 C212.22852539 281.78303711 211.97780273 282.56485352 211.71948242 283.37036133 C211.46360352 284.19342773 211.20772461 285.01649414 210.9440918 285.86450195 C206.47613387 300.1139739 206.47613387 300.1139739 201.8815918 303.17700195 C197.51071026 303.75978616 195.17615695 303.02117523 191.59951782 300.5218811 C188.12641528 297.80296124 185.02739405 294.69151361 181.89331055 291.5949707 C181.14950638 290.86256668 180.40570221 290.13016266 179.63935852 289.37556458 C178.07596227 287.83098796 176.51539814 286.28354004 174.95751953 284.73339844 C172.57315233 282.36852928 170.16830767 280.02583889 167.76245117 277.68286133 C166.24225752 276.17572145 164.72333291 274.66730024 163.20581055 273.1574707 C162.48608566 272.46243942 161.76636078 271.76740814 161.02482605 271.05131531 C156.93798481 266.9273784 154.89543935 264.25931011 154.8815918 258.17700195 C155.27501917 255.74490546 155.76347965 253.32724644 156.3190918 250.92700195 C162.80160075 218.81342555 155.38579098 184.82274875 137.57299805 157.6027832 C119.91375128 131.47196753 94.39283091 113.30822279 63.8815918 105.17700195 C63.2314209 105.00056152 62.58125 104.82412109 61.91137695 104.64233398 C30.85124221 96.65770317 -3.96599796 102.68241217 -31.48046875 118.64208984 C-61.6130946 136.85219832 -82.0508369 165.31988075 -90.66186523 199.32299805 C-95.00741052 218.02135727 -94.83234743 238.57870946 -90.1184082 257.17700195 C-89.95743652 257.82362793 -89.79646484 258.47025391 -89.63061523 259.13647461 C-83.94548612 281.12880404 -72.74432033 299.83430486 -57.1184082 316.17700195 C-56.50868164 316.84989258 -55.89895508 317.5227832 -55.27075195 318.21606445 C-34.74991194 340.087533 -3.12739343 352.24354383 26.45581055 353.45825195 C36.71608922 353.69972082 46.6022835 353.16292721 56.68017578 351.15698242 C61.36792206 350.24675067 65.20144685 349.79087794 69.8815918 351.17700195 C75.81923491 355.28997141 80.64239226 360.9477813 85.5065918 366.23950195 C89.59108533 370.65061948 93.6824212 375.02975506 97.99487305 379.2199707 C98.63924316 379.84701904 99.28361328 380.47406738 99.94750977 381.12011719 C101.16593669 382.29642526 102.39247708 383.46440557 103.62817383 384.62255859 C106.74685417 387.63869312 108.74573117 389.73134048 108.8815918 394.17700195 C108.0690918 397.23950195 108.0690918 397.23950195 105.8815918 400.17700195 C101.72752296 402.51265544 97.20681902 403.8158656 92.62768555 405.0637207 C91.55647461 405.36922852 90.48526367 405.67473633 89.3815918 405.98950195 C88.3812793 406.24344727 87.3809668 406.49739258 86.3503418 406.7590332 C83.55884244 408.00184126 83.55884244 408.00184126 82.81274414 411.29638672 C81.90414104 415.08302706 81.16454613 418.84571963 80.5144043 422.68481445 C80.26639019 424.09769508 80.0176713 425.51045213 79.76831055 426.9230957 C79.38413347 429.11846354 79.00454542 431.31423968 78.63696289 433.51245117 C78.27646307 435.6558733 77.89699023 437.79523928 77.5144043 439.93481445 C77.29671387 441.20470215 77.07902344 442.47458984 76.85473633 443.78295898 C75.80204509 447.45443757 74.50776303 449.43799981 71.8815918 452.17700195 C68.92190131 453.65684719 66.24416892 453.33707108 62.94091797 453.36987305 C62.22689316 453.37805054 61.51286835 453.38622803 60.77720642 453.39465332 C58.40966635 453.41950497 56.04218622 453.43602276 53.67456055 453.45043945 C52.86622583 453.45576313 52.05789112 453.46108681 51.22506142 453.46657181 C46.94643731 453.49330259 42.66784237 453.51267755 38.38916016 453.52709961 C33.97037411 453.54374631 29.55233407 453.58852364 25.13383007 453.63947105 C21.73573452 453.673132 18.33781629 453.6846757 14.93956947 453.69032669 C13.31085828 453.69704258 11.68215888 453.7122736 10.05360985 453.7362175 C7.77193855 453.76784946 5.49228233 453.76791007 3.21044922 453.76049805 C1.26424934 453.77262833 1.26424934 453.77262833 -0.7212677 453.78500366 C-5.02403758 453.01491734 -6.46140414 451.58525282 -9.1184082 448.17700195 C-9.97869873 446.14656067 -9.97869873 446.14656067 -10.31274414 444.15283203 C-10.44928406 443.3988765 -10.58582397 442.64492096 -10.72650146 441.86811829 C-10.85067444 441.06899521 -10.97484741 440.26987213 -11.1027832 439.4465332 C-11.24870911 438.61490158 -11.39463501 437.78326996 -11.54498291 436.92643738 C-12.00493378 434.2836128 -12.43743932 431.63719179 -12.8684082 428.98950195 C-13.31946877 426.3323757 -13.77604922 423.67626065 -14.23468018 421.02043152 C-14.51750218 419.3709338 -14.79481907 417.72048088 -15.06610107 416.06904602 C-15.68777553 412.00217407 -15.68777553 412.00217407 -17.1184082 408.17700195 C-18.84125649 407.37229661 -18.84125649 407.37229661 -20.95825195 406.73168945 C-21.76584961 406.46316162 -22.57344727 406.19463379 -23.40551758 405.91796875 C-24.71746094 405.48931519 -24.71746094 405.48931519 -26.0559082 405.05200195 C-36.70607296 401.46055539 -47.58971819 397.50338458 -57.3684082 391.8840332 C-59.73306743 390.92866865 -60.70913825 391.36275174 -63.1184082 392.17700195 C-64.78403105 393.17407272 -66.40999082 394.23862975 -68.00512695 395.3449707 C-68.94420898 395.99143555 -69.88329102 396.63790039 -70.85083008 397.30395508 C-72.31359375 398.32392578 -72.31359375 398.32392578 -73.8059082 399.36450195 C-77.57575676 401.97009519 -81.34688009 404.5738405 -85.1184082 407.17700195 C-85.97249268 407.77037354 -86.82657715 408.36374512 -87.70654297 408.97509766 C-88.89268188 409.78660278 -88.89268188 409.78660278 -90.1027832 410.61450195 C-90.7946875 411.09145508 -91.4865918 411.5684082 -92.19946289 412.05981445 C-95.48300985 413.97145706 -97.44791825 414.04457231 -101.1184082 413.17700195 C-111.13535934 405.85484894 -119.65515374 396.01309303 -128.46582031 387.28955078 C-130.52931397 385.24846063 -132.60216393 383.21761764 -134.68359375 381.19482422 C-137.21771492 378.73188892 -139.73412194 376.25208695 -142.23903084 373.75945854 C-143.6484762 372.36537309 -145.07500803 370.98863025 -146.5018158 369.61231995 C-153.56556719 362.52627086 -153.56556719 362.52627086 -154.26733398 357.69726562 C-154.10863807 353.94605848 -153.71272986 352.44135512 -151.5559082 349.42700195 C-150.60458008 348.05608398 -150.60458008 348.05608398 -149.6340332 346.6574707 C-149.25182617 346.12943848 -148.86961914 345.60140625 -148.47583008 345.05737305 C-146.18566045 341.88491145 -143.95566152 338.67021627 -141.71435547 335.46313477 C-140.45481219 333.66558265 -139.1897772 331.8718645 -137.91894531 330.08227539 C-137.32863525 329.24857422 -136.7383252 328.41487305 -136.13012695 327.5559082 C-135.59863037 326.80897705 -135.06713379 326.0620459 -134.51953125 325.29248047 C-133.82597534 324.2453186 -133.82597534 324.2453186 -133.1184082 323.17700195 C-132.6857666 322.52401123 -132.253125 321.87102051 -131.80737305 321.19824219 C-130.8903643 319.14788667 -130.8903643 319.14788667 -131.79003906 316.92895508 C-132.21679932 316.11362305 -132.64355957 315.29829102 -133.08325195 314.45825195 C-133.54916748 313.5350415 -134.01508301 312.61183105 -134.49511719 311.66064453 C-135.01017822 310.67604248 -135.52523926 309.69144043 -136.0559082 308.67700195 C-139.64059291 301.7183662 -142.52225212 295.22358126 -144.38110352 287.61450195 C-146.09196934 280.27305036 -146.09196934 280.27305036 -151.04223633 275.00268555 C-156.00156254 273.20703029 -161.10865929 272.79202594 -166.33862305 272.41918945 C-170.99644762 272.01337864 -175.5376499 271.0881759 -180.1184082 270.17700195 C-180.96040771 270.03391602 -181.80240723 269.89083008 -182.66992188 269.7434082 C-187.31299526 268.884442 -190.15178776 268.13249587 -193.1184082 264.17700195 C-194.56698267 261.27985302 -194.26174379 258.74843828 -194.27954102 255.51171875 C-194.28450592 254.82695465 -194.28947083 254.14219055 -194.29458618 253.43667603 C-194.30921591 251.16651409 -194.31601168 248.89642207 -194.3215332 246.6262207 C-194.3272847 245.04921974 -194.33304244 243.47221881 -194.33880615 241.8952179 C-194.34931893 238.58557814 -194.35515954 235.2759627 -194.35864258 231.96630859 C-194.36412301 227.72932672 -194.38813998 223.4926669 -194.41661453 219.25578594 C-194.43525814 215.99665903 -194.44044746 212.73760934 -194.44197845 209.47843361 C-194.44500245 207.9167486 -194.45302249 206.35506488 -194.46616364 204.79343224 C-194.48325807 202.60553037 -194.48133588 200.41841068 -194.47485352 198.23046875 C-194.47849915 196.98629684 -194.48214478 195.74212494 -194.48590088 194.46025085 C-194.08411581 190.87062722 -193.29430675 189.03097965 -191.1184082 186.17700195 C-187.42336603 183.7136405 -183.87154315 183.20693467 -179.58325195 182.45043945 C-178.33155968 182.22162582 -178.33155968 182.22162582 -177.05458069 181.9881897 C-175.29251069 181.66733759 -173.5298306 181.34982067 -171.76660156 181.03540039 C-169.0616155 180.55301974 -166.35847004 180.06126302 -163.65551758 179.56762695 C-161.94402784 179.2571859 -160.23244239 178.947272 -158.52075195 178.63793945 C-157.70928207 178.49109711 -156.89781219 178.34425476 -156.06175232 178.19296265 C-150.35496143 177.17700195 -150.35496143 177.17700195 -148.1184082 177.17700195 C-148.00368164 176.18055664 -147.88895508 175.18411133 -147.77075195 174.1574707 C-147.1862498 170.11660576 -146.04205344 166.33076227 -144.6809082 162.48950195 C-144.42937988 161.77415283 -144.17785156 161.05880371 -143.91870117 160.32177734 C-140.46449857 150.90498714 -135.77607837 142.04316045 -131.1184082 133.17700195 C-135.66328925 126.24428902 -140.4470105 119.52092397 -145.35083008 112.83911133 C-146.95929756 110.6315231 -148.54116427 108.40696759 -150.1184082 106.17700195 C-150.63000488 105.48622559 -151.14160156 104.79544922 -151.66870117 104.08374023 C-152.13550293 103.41455566 -152.60230469 102.74537109 -153.08325195 102.0559082 C-153.50082764 101.47526611 -153.91840332 100.89462402 -154.34863281 100.29638672 C-155.55124051 96.98530602 -154.88967686 94.57884438 -154.1184082 91.17700195 C-152.10910034 88.40579224 -152.10910034 88.40579224 -149.43432617 85.71655273 C-148.9479921 85.21970474 -148.46165802 84.72285675 -147.96058655 84.21095276 C-146.35862412 82.58271393 -144.73586751 80.97726179 -143.1105957 79.37231445 C-141.98448322 78.24215684 -140.85926241 77.1111101 -139.7348938 75.97921753 C-137.37887077 73.6143647 -135.01237931 71.26066306 -132.63793945 68.91430664 C-129.60109793 65.9116498 -126.59199449 62.88285478 -123.59023857 59.84517097 C-121.27271783 57.50592831 -118.94104472 55.1812149 -116.60489273 52.86059189 C-115.48976743 51.74945792 -114.37905113 50.6338803 -113.2729454 49.51376724 C-111.72234562 47.94785994 -110.15367862 46.40258003 -108.57885742 44.86108398 C-107.69140839 43.97840851 -106.80395935 43.09573303 -105.88961792 42.18630981 C-102.54638289 39.76224627 -100.21201076 39.34496745 -96.1184082 39.17700195 C-93.44604492 40.30957031 -93.44604492 40.30957031 -90.9230957 42.0793457 C-89.98046875 42.72758301 -89.0378418 43.37582031 -88.06665039 44.04370117 C-87.09373047 44.74769043 -86.12081055 45.45167969 -85.1184082 46.17700195 C-84.14291016 46.8745459 -83.16741211 47.57208984 -82.16235352 48.29077148 C-78.15669048 51.17366493 -74.15569889 54.06054716 -70.1965332 57.00708008 C-69.22458008 57.70381836 -68.25262695 58.40055664 -67.2512207 59.1184082 C-65.95015381 60.07275757 -65.95015381 60.07275757 -64.62280273 61.04638672 C-62.15114867 62.48121825 -62.15114867 62.48121825 -59.51660156 61.47436523 C-58.72519775 61.04623535 -57.93379395 60.61810547 -57.1184082 60.17700195 C-55.96211914 59.61625977 -54.80583008 59.05551758 -53.61450195 58.4777832 C-52.96562012 58.15874023 -52.31673828 57.83969727 -51.64819336 57.51098633 C-44.32769441 53.93701111 -36.93465413 50.86575462 -29.2434082 48.17700195 C-27.95067993 47.72321167 -27.95067993 47.72321167 -26.63183594 47.26025391 C-20.52368994 45.17700195 -20.52368994 45.17700195 -17.1184082 45.17700195 C-17.07377441 44.47244873 -17.02914062 43.76789551 -16.9831543 43.04199219 C-16.40187647 34.99660845 -15.21730289 27.1660725 -13.7434082 19.23950195 C-13.53458008 18.04776367 -13.32575195 16.85602539 -13.1105957 15.62817383 C-12.89918945 14.48026367 -12.6877832 13.33235352 -12.4699707 12.1496582 C-12.28257324 11.12106689 -12.09517578 10.09247559 -11.90209961 9.03271484 C-9.78697039 1.32534213 -7.42363251 0.02810965 0 0 Z M4.8815918 17.17700195 C4.68001465 18.34271729 4.4784375 19.50843262 4.27075195 20.70947266 C3.52126612 25.03252387 2.76242148 29.35388835 2.00073242 33.67480469 C1.67232683 35.54545095 1.3464639 37.41654544 1.02319336 39.28808594 C0.55819141 41.97753737 0.08408064 44.66524628 -0.3918457 47.3527832 C-0.53463959 48.19037674 -0.67743347 49.02797028 -0.82455444 49.89094543 C-1.03454575 51.06181953 -1.03454575 51.06181953 -1.2487793 52.25634766 C-1.36869232 52.94251663 -1.48860535 53.62868561 -1.6121521 54.33564758 C-2.1184082 56.17700195 -2.1184082 56.17700195 -4.1184082 59.17700195 C-6.18359375 60.07739258 -6.18359375 60.07739258 -8.75512695 60.83325195 C-9.71443115 61.12820557 -10.67373535 61.42315918 -11.66210938 61.72705078 C-12.69956299 62.04053467 -13.7370166 62.35401855 -14.8059082 62.67700195 C-28.10260112 66.88205966 -42.20043233 72.02531106 -53.76293945 80.0012207 C-57.25680073 81.74525428 -60.35881824 81.94945013 -64.1184082 81.17700195 C-67.26844362 79.70253274 -69.99608152 77.77755965 -72.8059082 75.73950195 C-73.5817627 75.1990625 -74.35761719 74.65862305 -75.15698242 74.10180664 C-76.73178056 73.00265784 -78.30119888 71.89575869 -79.86499023 70.78100586 C-82.5615249 68.86158736 -85.28701513 66.98691258 -88.01611328 65.11425781 C-90.39228266 63.48099821 -92.75589296 61.82992781 -95.1184082 60.17700195 C-98.25578975 61.5678072 -100.37316102 63.18722399 -102.78540039 65.61694336 C-103.83603668 66.66780624 -103.83603668 66.66780624 -104.90789795 67.73989868 C-106.02530365 68.87278824 -106.02530365 68.87278824 -107.1652832 70.02856445 C-107.93648499 70.80259613 -108.70768677 71.57662781 -109.5022583 72.37411499 C-111.96237676 74.84542119 -114.41544668 77.32359378 -116.8684082 79.80200195 C-118.53591714 81.47954248 -120.20388052 83.1566314 -121.87231445 84.83325195 C-125.9596319 88.94261115 -130.04118516 93.05762843 -134.1184082 97.17700195 C-132.96523016 100.26674199 -131.79351636 102.89777022 -129.7980957 105.5246582 C-129.34861572 106.1239917 -128.89913574 106.7233252 -128.43603516 107.34082031 C-127.95996826 107.96738525 -127.48390137 108.5939502 -126.9934082 109.23950195 C-126.00367919 110.57436723 -125.01541379 111.91031886 -124.02856445 113.24731445 C-122.62886803 115.13844756 -121.22880588 117.02916795 -119.82104492 118.91430664 C-118.6716935 120.46693111 -117.55049096 122.04027647 -116.4309082 123.61450195 C-115.78766602 124.50008789 -115.14442383 125.38567383 -114.48168945 126.2980957 C-112.71605529 130.02666986 -112.36557883 133.17109092 -113.1184082 137.17700195 C-114.32454996 140.11869746 -115.9379803 142.73436693 -117.6184082 145.42700195 C-125.34169762 158.56210076 -130.93383717 172.3988726 -134.1340332 187.3059082 C-135.31912229 190.76241805 -135.98946021 191.35996366 -139.1184082 193.17700195 C-141.95506428 193.89253206 -144.69323102 194.47393205 -147.56762695 194.96606445 C-148.38084915 195.11482025 -149.19407135 195.26357605 -150.03193665 195.4168396 C-152.62152051 195.88888288 -155.21342776 196.34616008 -157.8059082 196.80200195 C-160.40858589 197.26740842 -163.01065023 197.73589658 -165.61201477 198.20858765 C-167.22930669 198.50165403 -168.847454 198.79004448 -170.46647644 199.07339478 C-174.09622799 199.45033563 -174.09622799 199.45033563 -177.1184082 201.17700195 C-177.21193983 202.8650218 -177.23585611 204.55695403 -177.23193359 206.24755859 C-177.23185806 207.32860367 -177.23178253 208.40964874 -177.23170471 209.52345276 C-177.22654343 210.69947556 -177.22138214 211.87549835 -177.21606445 213.0871582 C-177.21464951 214.28432968 -177.21323456 215.48150116 -177.21177673 216.71495056 C-177.206158 220.55649261 -177.19360231 224.39797738 -177.1809082 228.23950195 C-177.17589562 230.83650632 -177.17133229 233.4335116 -177.16723633 236.03051758 C-177.15618248 242.41269874 -177.13942612 248.79484626 -177.1184082 255.17700195 C-175.37769043 255.46365723 -175.37769043 255.46365723 -173.60180664 255.75610352 C-169.29021819 256.47049838 -164.98246256 257.20605189 -160.67553711 257.94799805 C-158.81225518 258.26594544 -156.9479878 258.57817354 -155.08276367 258.88452148 C-152.39912757 259.32631347 -149.719728 259.78866999 -147.0402832 260.25512695 C-146.20785095 260.38759827 -145.3754187 260.52006958 -144.51776123 260.65655518 C-139.90940413 261.48223254 -136.96700545 262.17229634 -134.1184082 266.17700195 C-133.10449219 268.46923828 -133.10449219 268.46923828 -132.36450195 271.0090332 C-132.072771 271.96189209 -131.78104004 272.91475098 -131.48046875 273.89648438 C-131.17536377 274.91718018 -130.87025879 275.93787598 -130.5559082 276.98950195 C-126.38301874 290.25046806 -121.24453992 304.29607867 -113.29418945 315.8215332 C-111.54421213 319.32730172 -111.28379798 322.41099437 -112.1184082 326.17700195 C-113.76940101 329.37653233 -115.88991265 332.10894277 -118.1184082 334.92700195 C-119.31153562 336.50121977 -120.50293973 338.07674517 -121.69262695 339.65356445 C-122.27705566 340.41830078 -122.86148438 341.18303711 -123.46362305 341.97094727 C-126.90257996 346.55554665 -129.99933545 351.37117989 -133.1184082 356.17700195 C-131.72760295 359.3143835 -130.10818617 361.43175477 -127.6784668 363.84399414 C-126.62760391 364.89463043 -126.62760391 364.89463043 -125.55551147 365.9664917 C-124.80025177 366.71142883 -124.04499207 367.45636597 -123.2668457 368.22387695 C-122.10579819 369.38067963 -122.10579819 369.38067963 -120.92129517 370.56085205 C-118.44998897 373.02097051 -115.97181638 375.47404043 -113.4934082 377.92700195 C-111.81586768 379.59451089 -110.13877876 381.26247427 -108.4621582 382.9309082 C-104.35279901 387.01822565 -100.23778173 391.09977891 -96.1184082 395.17700195 C-92.03670651 392.88788265 -88.09388129 390.57068494 -84.27075195 387.86450195 C-83.41803711 387.26379883 -82.56532227 386.6630957 -81.68676758 386.04418945 C-80.81858398 385.42801758 -79.95040039 384.8118457 -79.0559082 384.17700195 C-76.49042195 382.36428587 -73.92427784 380.55303584 -71.34838867 378.75512695 C-70.01616149 377.812329 -68.69705989 376.84983455 -67.40795898 375.84887695 C-64.90400189 373.9632321 -63.00274081 373.15547262 -59.9074707 372.5793457 C-54.42284152 373.44444701 -50.27825649 376.01423107 -45.4934082 378.73950195 C-36.19324167 383.82449048 -27.00107996 387.66845984 -16.88012695 390.7746582 C-16.10459473 391.01458496 -15.3290625 391.25451172 -14.5300293 391.50170898 C-12.08327089 392.22162154 -12.08327089 392.22162154 -9.39819336 392.70776367 C-2.88530127 394.13293771 -2.88530127 394.13293771 -0.9362793 396.78637695 C-0.04326605 399.23967139 0.42859761 401.60319081 0.8815918 404.17700195 C1.13602051 405.40821777 1.39044922 406.63943359 1.65258789 407.90795898 C2.52159262 412.17412262 3.29787715 416.45446912 4.0690918 420.73950195 C5.4612793 428.38106445 5.4612793 428.38106445 6.8815918 436.17700195 C25.0315918 436.17700195 43.1815918 436.17700195 61.8815918 436.17700195 C63.94437473 423.1525969 63.94437473 423.1525969 65.94848633 410.11914062 C66.21833936 408.48573239 66.49017792 406.85265041 66.7644043 405.2199707 C66.88485107 404.37164673 67.00529785 403.52332275 67.12939453 402.64929199 C67.53243994 400.33539799 67.93801386 398.32782002 68.8815918 396.17700195 C71.84057617 394.17114258 71.84057617 394.17114258 74.8815918 393.17700195 C76.25444336 392.70713867 76.25444336 392.70713867 77.6550293 392.2277832 C78.51354492 391.98415039 79.37206055 391.74051758 80.2565918 391.48950195 C81.13057617 391.23813477 82.00456055 390.98676758 82.9050293 390.7277832 C83.55729492 390.54602539 84.20956055 390.36426758 84.8815918 390.17700195 C82.88895601 387.83702598 80.88853863 385.50466352 78.8815918 383.17700195 C78.31794922 382.51700195 77.75430664 381.85700195 77.17358398 381.17700195 C70.14077081 372.48797092 70.14077081 372.48797092 60.65893555 367.39575195 C57.5850459 367.68734623 54.84983655 368.33753896 51.8815918 369.17700195 C49.9281189 369.40974504 47.96870874 369.59694392 46.0065918 369.73950195 C45.01143555 369.81942383 44.0162793 369.8993457 42.9909668 369.98168945 C3.08293389 372.48847544 -34.23555884 358.98101341 -64.1887207 332.7902832 C-92.41669765 307.61092777 -107.10359977 272.85252555 -109.9699707 235.5402832 C-111.73512119 195.54568923 -98.43534987 158.53011938 -71.6184082 128.92700195 C-45.93711469 101.31491853 -11.27774733 86.38846429 26.17456055 84.2746582 C61.40643131 83.00366719 97.07146115 93.88739352 123.8815918 117.17700195 C125.09202148 118.20567383 125.09202148 118.20567383 126.3269043 119.25512695 C154.83945997 144.10305948 171.78354929 178.48415143 174.8815918 216.17700195 C175.03619945 219.615996 175.06507027 223.04738796 175.0690918 226.48950195 C175.08496338 227.44590576 175.10083496 228.40230957 175.1171875 229.38769531 C175.14077828 234.23739971 174.90822892 238.61101706 173.6940918 243.31762695 C171.88497973 250.72788247 171.88497973 250.72788247 172.8815918 258.17700195 C178.24973252 266.25835089 186.1009201 273.44661892 193.8815918 279.17700195 C194.5415918 279.17700195 195.2015918 279.17700195 195.8815918 279.17700195 C196.20772461 278.04520508 196.53385742 276.9134082 196.86987305 275.74731445 C197.31070393 274.26537234 197.75214183 272.78361071 198.1940918 271.30200195 C198.40743164 270.55563477 198.62077148 269.80926758 198.84057617 269.0402832 C200.54174805 263.40356445 200.54174805 263.40356445 203.8815918 261.17700195 C206.74162342 260.5366171 209.56678956 259.98145413 212.4519043 259.4855957 C213.28873749 259.33542496 214.12557068 259.18525421 214.98776245 259.03053284 C217.65956923 258.55185633 220.33290077 258.08252996 223.0065918 257.61450195 C225.68720911 257.14183272 228.36741873 256.66713863 231.04684448 256.1877594 C232.71433694 255.88975081 234.38256373 255.59581818 236.05154419 255.30625916 C239.77638852 254.93134326 239.77638852 254.93134326 242.8815918 253.17700195 C242.97512343 251.4889821 242.9990397 249.79704988 242.99511719 248.10644531 C242.99500389 246.4848777 242.99500389 246.4848777 242.99488831 244.83055115 C242.98972702 243.65452835 242.98456573 242.47850555 242.97924805 241.2668457 C242.9778331 240.06967422 242.97641815 238.87250275 242.97496033 237.63905334 C242.96934159 233.79751129 242.95678591 229.95602653 242.9440918 226.11450195 C242.93907921 223.51749758 242.93451589 220.92049231 242.93041992 218.32348633 C242.91936607 211.94130517 242.90260972 205.55915765 242.8815918 199.17700195 C238.90027143 198.37267202 234.91833156 197.57144987 230.9362793 196.77075195 C229.81825928 196.54484375 228.70023926 196.31893555 227.54833984 196.08618164 C220.24333501 194.6192917 212.94040238 193.28633935 205.5769043 192.14575195 C202.04837371 190.87752647 201.5917541 189.45171911 199.8815918 186.17700195 C199.25103925 184.50664876 198.67655457 182.81422795 198.1550293 181.10668945 C197.84984375 180.13650879 197.5446582 179.16632813 197.23022461 178.16674805 C196.90892578 177.13888184 196.58762695 176.11101562 196.2565918 175.05200195 C193.65464255 166.98497835 190.79211184 159.20137404 187.1315918 151.55200195 C186.76727051 150.79000488 186.40294922 150.02800781 186.02758789 149.24291992 C184.40958651 145.95882842 182.85299573 143.13962985 180.6159668 140.21606445 C178.2309645 136.0369388 177.814182 132.87512857 178.8815918 128.17700195 C180.68827673 124.58395638 183.00030999 121.48609861 185.4440918 118.30200195 C186.67705407 116.63978615 187.9075155 114.97571247 189.13549805 113.30981445 C189.74796387 112.48642578 190.36042969 111.66303711 190.99145508 110.81469727 C194.15625276 106.39820616 197.02172462 101.79479941 199.8815918 97.17700195 C194.70298716 91.87193182 189.50512087 86.58631897 184.29321289 81.31396484 C182.5214283 79.51698977 180.75415099 77.71555922 178.99145508 75.90966797 C176.46126959 73.31903679 173.91546295 70.74470705 171.3659668 68.1730957 C170.5772821 67.35860458 169.78859741 66.54411346 168.97601318 65.7049408 C167.86531464 64.59367577 167.86531464 64.59367577 166.73217773 63.45996094 C166.08375916 62.8004393 165.43534058 62.14091766 164.76727295 61.46141052 C162.96427011 59.93459309 162.96427011 59.93459309 160.75019836 60.4095459 C158.75970758 61.22706106 157.14179546 62.16740621 155.37768555 63.3996582 C154.72469482 63.85228027 154.0717041 64.30490234 153.39892578 64.77124023 C152.36940796 65.49802979 152.36940796 65.49802979 151.3190918 66.23950195 C150.25380249 66.97789307 150.25380249 66.97789307 149.16699219 67.73120117 C145.94079322 69.97776441 142.74774374 72.25239068 139.6315918 74.6496582 C138.7034668 75.35993164 137.7753418 76.07020508 136.8190918 76.80200195 C136.02374023 77.43364258 135.22838867 78.0652832 134.40893555 78.71606445 C131.0751686 80.64315694 128.73911913 81.10716387 124.8815918 81.17700195 C122.11867607 80.108327 119.80977854 79.04502868 117.2565918 77.61450195 C115.83936971 76.86569125 114.42139064 76.11831162 113.00268555 75.37231445 C112.3051416 74.99880859 111.60759766 74.62530273 110.88891602 74.24047852 C98.58589841 67.72236313 85.6484665 63.03487594 72.0534668 60.0480957 C69.16416613 58.88925749 68.48579335 57.86535295 66.8815918 55.17700195 C66.16606169 52.34034588 65.5846617 49.60217914 65.0925293 46.7277832 C64.9437735 45.914561 64.7950177 45.10133881 64.64175415 44.26347351 C64.16971087 41.67388965 63.71243367 39.0819824 63.2565918 36.48950195 C62.79118533 33.88682427 62.32269717 31.28475993 61.8500061 28.68339539 C61.55693972 27.06610347 61.26854927 25.44795616 60.98519897 23.82893372 C60.60825812 20.19918216 60.60825812 20.19918216 58.8815918 17.17700195 C57.19357195 17.08347032 55.50163972 17.05955405 53.81103516 17.06347656 C52.72999008 17.06355209 51.64894501 17.06362762 50.53514099 17.06370544 C49.35911819 17.06886673 48.1830954 17.07402802 46.97143555 17.0793457 C45.77426407 17.08076065 44.57709259 17.0821756 43.34364319 17.08363342 C39.50210114 17.08925216 35.66061637 17.10180784 31.8190918 17.11450195 C29.22208743 17.11951454 26.62508215 17.12407786 24.02807617 17.12817383 C17.64589501 17.13922768 11.26374749 17.15598403 4.8815918 17.17700195 Z " fill="#000000" transform="translate(197.118408203125,2.822998046875)"/>
<path d="M0 0 C18.43516716 15.83602295 30.71445683 35.31721805 34.25 59.625 C34.34756869 61.8045938 34.40383989 63.98630256 34.42578125 66.16796875 C34.44962891 67.40740234 34.47347656 68.64683594 34.49804688 69.92382812 C34.54068919 72.4965812 34.57211535 75.06954696 34.59179688 77.64257812 C35.01863859 96.8306024 44.08082388 107.89925738 57.07592773 120.96606445 C58.27468779 122.18201584 59.47287881 123.39852844 60.67054749 124.61555481 C63.90715378 127.89976887 67.15362886 131.17403983 70.40359759 134.44502664 C72.43876399 136.49348526 74.47243816 138.54341502 76.50575447 140.59370995 C82.88259829 147.02222898 89.26617068 153.44396617 95.65860313 159.85698444 C103.01185353 167.23426579 110.34141553 174.63407003 117.65161937 182.05400306 C123.32248424 187.80701134 129.0144989 193.53853849 134.72260815 199.2545926 C138.12313589 202.66084595 141.51418251 206.0753734 144.88314629 209.5128727 C148.05453194 212.7476776 151.25157162 215.95480835 154.46936607 219.14343071 C155.63861828 220.31093382 156.79869333 221.48772093 157.9481163 222.67475128 C165.05200579 229.9975046 170.69438123 233.92453768 180.80899143 235.89866924 C191.18873369 238.08963329 198.95555228 244.22906431 206.25 251.625 C206.89839844 252.26308594 207.54679687 252.90117187 208.21484375 253.55859375 C219.20477952 265.12568151 222.75299939 279.65140245 222.67407227 295.1340332 C222.22034854 311.38100904 215.39831375 323.26266975 204.25 334.625 C203.70730469 335.1921875 203.16460937 335.759375 202.60546875 336.34375 C191.69465505 346.72973975 175.87803849 351.15465332 161.17675781 350.97460938 C145.69635103 350.42728491 131.75704718 344.05875969 120.65625 333.30078125 C114.50759404 326.46339597 108.31333625 317.27265872 106.82998085 307.99916649 C105.21551409 298.0513122 99.56243646 292.69518441 92.66943359 285.97509766 C91.46002178 284.76330927 90.25257423 283.54955781 89.04693604 282.33401489 C85.78576892 279.05752775 82.49747899 275.80959528 79.20299482 272.56665468 C75.74856214 269.15755988 72.31867798 265.72392925 68.88565063 262.29330444 C63.11856592 256.53727506 57.33488658 250.79837879 51.53955078 245.07080078 C44.11704292 237.73490343 36.72252422 230.37145 29.33652306 222.99881935 C22.96584222 216.6401111 16.58244549 210.29421156 10.19699907 203.95033598 C8.15482957 201.92041623 6.11438617 199.88877357 4.07416916 197.85689163 C0.85900564 194.6564976 -2.36402479 191.4642272 -5.59313202 188.27790451 C-6.7722666 187.11224206 -7.94897711 185.94412123 -9.1229744 184.77328491 C-22.6901782 171.25076436 -34.2259161 164.10940436 -53.875 164.125 C-81.94971335 163.57767848 -103.76258284 154.57923004 -123.8671875 134.51171875 C-141.81739613 115.40906482 -148.68365959 90.67121353 -147.89501953 65.04785156 C-147.53898587 59.09957197 -146.24188117 53.38531896 -144.75 47.625 C-144.5334375 46.69429688 -144.316875 45.76359375 -144.09375 44.8046875 C-143.01333867 40.80459319 -142.30949187 39.07005035 -139 36.4375 C-134.82964642 35.3949116 -132.76015845 36.13725523 -128.75 37.625 C-126.06144714 39.7190094 -126.06144714 39.7190094 -123.48901367 42.33422852 C-123.01327911 42.81083923 -122.53754456 43.28744995 -122.0473938 43.77850342 C-120.49220406 45.34221095 -118.95536528 46.92271908 -117.41796875 48.50390625 C-116.33534658 49.59840679 -115.25153084 50.69172787 -114.1665802 51.78392029 C-111.3237816 54.65138737 -108.49590111 57.53311403 -105.67138672 60.4185791 C-101.67853275 64.49211099 -97.66550201 68.54578513 -93.65486145 72.60179138 C-91.52068056 74.76022492 -89.39213053 76.92398468 -87.26786804 79.09217834 C-86.29993211 80.07652283 -85.33198146 81.06085285 -84.36401367 82.04516602 C-83.51908859 82.90739273 -82.67416351 83.76961945 -81.80363464 84.65797424 C-79.45266996 86.9097906 -78.30985569 87.51836082 -75.125 88.125 C-66.81158791 86.89338339 -59.63938785 76.82365887 -53.80200195 71.08203125 C-52.80257665 70.10439312 -51.79692578 69.13308202 -50.78540039 68.16796875 C-49.30174924 66.75137662 -47.83890529 65.31590988 -46.37890625 63.875 C-45.0806189 62.61429688 -45.0806189 62.61429688 -43.75610352 61.328125 C-41.23126836 57.92603484 -40.703121 55.85517504 -40.75 51.625 C-43.22202114 47.3892448 -46.10105985 44.05169781 -49.61035156 40.64868164 C-50.07910706 40.19087814 -50.54786255 39.73307465 -51.03082275 39.26139832 C-52.03922567 38.27716916 -53.0497905 37.29515094 -54.06232452 36.3151722 C-55.66554173 34.76100179 -57.2599513 33.19829051 -58.85198975 31.63267517 C-63.37541722 27.18524358 -67.90557461 22.74503161 -72.46191406 18.33129883 C-75.25673079 15.62273214 -78.03411031 12.89730428 -80.80101776 10.1602459 C-81.85521265 9.12396852 -82.91579964 8.09415136 -83.98285675 7.07112312 C-85.47419511 5.64014993 -86.94232254 4.1886678 -88.40722656 2.73071289 C-89.24787659 1.91163956 -90.08852661 1.09256622 -90.95465088 0.24867249 C-93.29024115 -3.16449315 -93.20776834 -5.32081801 -92.75 -9.375 C-88.37844046 -15.42950734 -80.25207058 -16.66743069 -73.30859375 -18.0703125 C-47.42907754 -22.1763363 -20.74917387 -16.56470904 0 0 Z M-68.75 -2.375 C-64.50609327 2.71057538 -60.04972767 7.41031476 -55.3046875 12.02734375 C-53.88367183 13.4259826 -52.46311254 14.82508526 -51.04296875 16.22460938 C-48.83124017 18.39923831 -46.61665494 20.57062314 -44.39404297 22.73413086 C-42.22996928 24.84346931 -40.07902763 26.96550762 -37.9296875 29.08984375 C-37.26919403 29.72655502 -36.60870056 30.3632663 -35.92819214 31.01927185 C-29.54593979 37.3652467 -25.67650389 44.17842392 -25.5 53.3125 C-25.79935043 69.03991106 -37.91109812 77.98562127 -48.3125 88.5 C-49.20646484 89.42296875 -50.10042969 90.3459375 -51.02148438 91.296875 C-58.1906304 98.53419871 -64.91823648 103.67172921 -75.4375 103.875 C-93.07232006 103.53934457 -104.2771933 87.20947729 -115.8125 75.5625 C-118.61304765 72.73544576 -121.41684922 69.91167702 -124.22265625 67.08984375 C-124.86421158 66.43999008 -125.50576691 65.79013641 -126.16676331 65.12059021 C-127.67572932 63.60315143 -129.21018272 62.11112302 -130.75 60.625 C-131.08 60.625 -131.41 60.625 -131.75 60.625 C-132.60646625 83.20935624 -129.16296776 103.66051985 -113.93359375 121.32421875 C-99.69146028 136.33068854 -82.70919059 146.09985493 -61.75 147.625 C-58.7697447 147.65972682 -55.79240377 147.61128936 -52.8125 147.5625 C-31.32472191 147.28332099 -15.69093373 155.98112816 -0.60668945 170.59863281 C3.31786677 174.45084071 7.20282456 178.3417289 11.07617188 182.24536133 C13.50335046 184.69087577 15.93851554 187.12821349 18.375 189.56445312 C19.94318173 191.13754906 21.51090598 192.7111012 23.078125 194.28515625 C23.79494446 195.00308853 24.51176392 195.72102081 25.25030518 196.46070862 C25.93501892 197.15180222 26.61973267 197.84289581 27.32519531 198.55493164 C27.91600891 199.14955704 28.50682251 199.74418243 29.11553955 200.35682678 C30.98834172 202.3469502 32.77951559 204.37771882 34.56697083 206.44395447 C37.93700766 210.31386238 41.46474424 213.97536745 45.10327148 217.59179688 C46.07040825 218.55915268 46.07040825 218.55915268 47.05708313 219.54605103 C49.15938818 221.64766713 51.26519777 223.7457327 53.37109375 225.84375 C54.84104456 227.311833 56.31077272 228.78013897 57.7802887 230.24865723 C61.62655945 234.09113136 65.47582506 237.9305914 69.32574463 241.76940918 C73.2626134 245.69600211 77.19661131 249.62546906 81.13085938 253.5546875 C88.83444922 261.24759043 96.54120935 268.93730887 104.25 276.625 C106.17185711 273.74221433 107.21706172 271.22395641 108.4375 268 C110.90463319 262.01251303 113.94116533 257.42755531 118.25 252.625 C118.86875 251.92503906 119.4875 251.22507812 120.125 250.50390625 C127.78830726 242.33074186 136.69659126 238.0357975 147.25 234.625 C142.07325254 228.34412701 136.38252376 222.65642713 130.59814453 216.93896484 C129.52625222 215.87555438 128.45462456 214.81187709 127.38323975 213.74795532 C125.0862594 211.46761532 122.7879026 209.18867499 120.48859024 206.91068649 C116.84365302 203.29856655 113.20483729 199.68032204 109.56735229 196.06069946 C108.95122578 195.44765941 108.33509926 194.83461936 107.70030224 194.20300233 C106.44093598 192.94994338 105.18157847 191.69687562 103.92222953 190.44379926 C95.46296311 182.02739468 86.99927607 173.61551579 78.52099609 165.21826172 C72.78867913 159.54063307 67.06547823 153.85398292 61.35231102 148.15708315 C58.33618928 145.15028045 55.31574508 142.14814163 52.2840004 139.15708542 C49.42811969 136.33942666 46.58448231 133.50994508 43.74925995 130.67150497 C42.7153062 129.64048838 41.67714816 128.61366529 40.63418961 127.59175873 C28.21662594 115.41352497 20.20334653 102.22426922 18.25 84.625 C18.23132704 82.10414974 18.25400804 79.58274074 18.3125 77.0625 C18.53490605 54.30294756 11.31095893 34.06889904 -4.75 17.625 C-22.13226504 1.38622942 -45.18113263 -5.67281439 -68.75 -2.375 Z M129.62890625 265.53125 C121.99684773 277.11987143 119.86497762 287.95984385 121.25 301.625 C124.07652251 312.76052402 131.009706 321.93880135 140.25 328.625 C150.99894459 334.88982162 162.25643394 336.51895194 174.49609375 333.94140625 C185.57961227 330.15257226 195.1522919 323.12899151 200.82421875 312.7421875 C205.91709116 301.79761928 207.23705904 290.03331959 203.75 278.3125 C199.11173158 266.40168527 190.84383332 257.40286197 179.11328125 252.24609375 C161.08183754 246.00360359 141.80225768 250.27120832 129.62890625 265.53125 Z " fill="#000000" transform="translate(286.75,157.375)"/>
<path d="M0 0 C7.31103327 5.30170956 11.81840061 11.56679746 13.546875 20.5234375 C14.47005642 29.4750002 12.19563408 37.46248864 6.546875 44.5234375 C1.05764711 50.37959239 -5.42171657 53.93884827 -13.4453125 54.87109375 C-22.13677216 55.12542399 -29.84396242 53.47563591 -36.8203125 48.10546875 C-42.32183383 42.77504736 -45.95588762 36.0795195 -46.7890625 28.4453125 C-46.90932656 18.67987067 -45.50702422 11.4211093 -38.703125 4.1484375 C-27.90056114 -5.82781084 -12.78082624 -7.69291771 0 0 Z M-27.453125 16.5234375 C-29.65295366 20.28443489 -30.453125 22.72750454 -30.453125 27.0859375 C-28.98780742 32.12296668 -26.68906366 35.13352968 -22.140625 37.9609375 C-17.7048271 38.88936032 -13.63426718 38.76501074 -9.67578125 36.51171875 C-6.38770845 33.96326135 -4.3251584 31.59292668 -3.453125 27.5234375 C-3.70864056 22.75381376 -4.50359461 19.31569086 -7.453125 15.5234375 C-11.14545332 12.37409864 -14.54133804 11.99212238 -19.23828125 12.1796875 C-22.83787941 12.73835529 -24.80598035 14.06537461 -27.453125 16.5234375 Z " fill="#000000" transform="translate(466.453125,424.4765625)"/>
</svg>
